<?xml version="1.0" encoding="UTF-8" standalone="no"?>
<!-- Created with Inkscape (http://www.inkscape.org/) -->

<svg
   xmlns:osb="http://www.openswatchbook.org/uri/2009/osb"
   xmlns:dc="http://purl.org/dc/elements/1.1/"
   xmlns:cc="http://creativecommons.org/ns#"
   xmlns:rdf="http://www.w3.org/1999/02/22-rdf-syntax-ns#"
   xmlns:svg="http://www.w3.org/2000/svg"
   xmlns="http://www.w3.org/2000/svg"
   xmlns:sodipodi="http://sodipodi.sourceforge.net/DTD/sodipodi-0.dtd"
   xmlns:inkscape="http://www.inkscape.org/namespaces/inkscape"
   width="297mm"
   height="210mm"
   id="svg10830"
   version="1.1"
   inkscape:version="0.48.0 r9654"
   sodipodi:docname="axes_general1_reduced.svg">
  <sodipodi:namedview
     inkscape:document-units="mm"
     pagecolor="#ffffff"
     bordercolor="#666666"
     borderopacity="1.0"
     inkscape:pageopacity="0.0"
     inkscape:pageshadow="2"
     inkscape:zoom="1"
     inkscape:cx="121"
     inkscape:cy="340"
     inkscape:current-layer="layer1"
     id="namedview10834"
     showgrid="false"
     inkscape:window-width="2380"
     inkscape:window-height="1003"
     inkscape:window-x="277"
     inkscape:window-y="144"
     inkscape:window-maximized="0" />
  <defs
     id="defs10832">
    <linearGradient
       id="linearGradient13009"
       osb:paint="solid">
      <stop
         style="stop-color:#000000;stop-opacity:1;"
         offset="0"
         id="stop13011" />
    </linearGradient>
    <marker
       inkscape:stockid="Arrow1Lstart"
       orient="auto"
       refY="0"
       refX="0"
       id="Arrow1Lstart"
       style="overflow:visible">
      <path
         inkscape:connector-curvature="0"
         id="path3758"
         d="M 0,0 5,-5 -12.5,0 5,5 0,0 z"
         style="fill-rule:evenodd;stroke:#000000;stroke-width:1pt;marker-start:none"
         transform="matrix(0.8,0,0,0.8,10,0)" />
    </marker>
    <marker
       inkscape:stockid="Arrow2Lend"
       orient="auto"
       refY="0"
       refX="0"
       id="Arrow2Lend"
       style="overflow:visible">
      <path
         inkscape:connector-curvature="0"
         id="path3779"
         style="font-size:12px;fill-rule:evenodd;stroke-width:0.625;stroke-linejoin:round"
         d="M 8.7185878,4.0337352 -2.2072895,0.01601326 8.7185884,-4.0017078 c -1.7454984,2.3720609 -1.7354408,5.6174519 -6e-7,8.035443 z"
         transform="matrix(-1.1,0,0,-1.1,-1.1,0)" />
    </marker>
    <marker
       inkscape:stockid="Arrow2Lend"
       orient="auto"
       refY="0"
       refX="0"
       id="marker10778"
       style="overflow:visible">
      <path
         inkscape:connector-curvature="0"
         id="path10780"
         style="font-size:12px;fill-rule:evenodd;stroke-width:0.625;stroke-linejoin:round"
         d="M 8.7185878,4.0337352 -2.2072895,0.01601326 8.7185884,-4.0017078 c -1.7454984,2.3720609 -1.7354408,5.6174519 -6e-7,8.035443 z"
         transform="matrix(-1.1,0,0,-1.1,-1.1,0)" />
    </marker>
    <marker
       inkscape:stockid="Arrow1Lstart"
       orient="auto"
       refY="0"
       refX="0"
       id="marker10782"
       style="overflow:visible">
      <path
         inkscape:connector-curvature="0"
         id="path10784"
         d="M 0,0 5,-5 -12.5,0 5,5 0,0 z"
         style="fill-rule:evenodd;stroke:#000000;stroke-width:1pt;marker-start:none"
         transform="matrix(0.8,0,0,0.8,10,0)" />
    </marker>
    <marker
       inkscape:stockid="Arrow2Lend"
       orient="auto"
       refY="0"
       refX="0"
       id="marker10786"
       style="overflow:visible">
      <path
         inkscape:connector-curvature="0"
         id="path10788"
         style="font-size:12px;fill-rule:evenodd;stroke-width:0.625;stroke-linejoin:round"
         d="M 8.7185878,4.0337352 -2.2072895,0.01601326 8.7185884,-4.0017078 c -1.7454984,2.3720609 -1.7354408,5.6174519 -6e-7,8.035443 z"
         transform="matrix(-1.1,0,0,-1.1,-1.1,0)" />
    </marker>
    <marker
       inkscape:stockid="Arrow2Lstart"
       orient="auto"
       refY="0"
       refX="0"
       id="Arrow2Lstart"
       style="overflow:visible">
      <path
         inkscape:connector-curvature="0"
         id="path3776"
         style="font-size:12px;fill-rule:evenodd;stroke-width:0.625;stroke-linejoin:round"
         d="M 8.7185878,4.0337352 -2.2072895,0.01601326 8.7185884,-4.0017078 c -1.7454984,2.3720609 -1.7354408,5.6174519 -6e-7,8.035443 z"
         transform="matrix(1.1,0,0,1.1,1.1,0)" />
    </marker>
    <marker
       inkscape:stockid="Arrow2Lstart"
       orient="auto"
       refY="0"
       refX="0"
       id="marker10792"
       style="overflow:visible">
      <path
         inkscape:connector-curvature="0"
         id="path10794"
         style="font-size:12px;fill-rule:evenodd;stroke-width:0.625;stroke-linejoin:round"
         d="M 8.7185878,4.0337352 -2.2072895,0.01601326 8.7185884,-4.0017078 c -1.7454984,2.3720609 -1.7354408,5.6174519 -6e-7,8.035443 z"
         transform="matrix(1.1,0,0,1.1,1.1,0)" />
    </marker>
    <marker
       inkscape:stockid="Arrow1Lend"
       orient="auto"
       refY="0"
       refX="0"
       id="Arrow1Lend"
       style="overflow:visible">
      <path
         inkscape:connector-curvature="0"
         id="path3761"
         d="M 0,0 5,-5 -12.5,0 5,5 0,0 z"
         style="fill-rule:evenodd;stroke:#000000;stroke-width:1pt;marker-start:none"
         transform="matrix(-0.8,0,0,-0.8,-10,0)" />
    </marker>
  </defs>
  <metadata
     id="metadata10836">
    <rdf:RDF>
      <cc:Work
         rdf:about="">
        <dc:format>image/svg+xml</dc:format>
        <dc:type
           rdf:resource="http://purl.org/dc/dcmitype/StillImage" />
        <dc:title />
      </cc:Work>
    </rdf:RDF>
  </metadata>
  <g
     inkscape:label="Layer 1"
     inkscape:groupmode="layer"
     id="layer1">
    <path
       style="fill:none;stroke:#828282;stroke-width:4.25196838000000010;stroke-linecap:butt;stroke-linejoin:miter;stroke-miterlimit:4;stroke-opacity:1;stroke-dasharray:none;marker-start:url(#Arrow1Lstart);marker-end:url(#Arrow2Lend)"
       d="m 292.93474,32.433587 1,382.000003 -215,288"
       id="path4389"
       inkscape:connector-curvature="0" />
    <path
       style="fill:none;stroke:#828282;stroke-width:4.25196838000000010;stroke-linecap:butt;stroke-linejoin:miter;stroke-miterlimit:4;stroke-opacity:1;stroke-dasharray:none;marker-start:none;marker-end:url(#Arrow2Lend);fill-opacity:1"
       d="m 293.93474,414.43359 694,1"
       id="path5451"
       inkscape:connector-curvature="0"
       sodipodi:nodetypes="cc" />
    <path
       style="fill:none;stroke:#ca0000;stroke-width:0;stroke-linecap:butt;stroke-linejoin:miter;stroke-miterlimit:4;stroke-opacity:1;stroke-dasharray:none;marker-start:none;marker-mid:none"
       d="m 292.93474,412.43359 313,-216.00001 1,364.00001 64,-148"
       id="path7160"
       inkscape:connector-curvature="0" />
    <path
       style="fill:#d40000;fill-opacity:1;stroke:#d30000;stroke-width:2.12598419;stroke-linecap:butt;stroke-linejoin:miter;stroke-miterlimit:4;stroke-opacity:1;stroke-dasharray:4.25196838, 2.12598419;stroke-dashoffset:0;marker-end:url(#Arrow2Lend)"
       d="m 293.93474,412.43359 331,-253"
       id="path8666"
       inkscape:connector-curvature="0" />
    <path
       style="fill:none;stroke:#0000b0;stroke-width:1.77165353;stroke-linecap:butt;stroke-linejoin:miter;stroke-miterlimit:4;stroke-opacity:1;stroke-dasharray:5.3149606, 1.77165353;stroke-dashoffset:0;marker-start:url(#Arrow2Lstart);marker-end:none"
       d="m 624.93474,160.43359 82,254"
       id="path8668"
       inkscape:connector-curvature="0"
       sodipodi:nodetypes="cc" />
    <path
       style="fill:none;stroke:#b00000;stroke-width:1.77165353;stroke-linecap:butt;stroke-linejoin:miter;stroke-miterlimit:4;stroke-opacity:1;stroke-dasharray:3.54330709, 1.77165354;stroke-dashoffset:0;marker-end:url(#Arrow1Lend)"
       d="m 293.93474,413.43359 413,1"
       id="path10568"
       inkscape:connector-curvature="0"
       sodipodi:nodetypes="cc" />
    <g
       id="g4657"
       transform="translate(250,-185)">
      <g
         word-spacing="normal"
         letter-spacing="normal"
         font-size-adjust="none"
         font-stretch="normal"
         font-weight="normal"
         font-variant="normal"
         font-style="normal"
         stroke-miterlimit="10.433"
         xml:space="preserve"
         transform="matrix(1.0629921,0,0,-1.0629921,-186.02362,789.27165)"
         id="content"
         style="font-style:normal;font-variant:normal;font-weight:normal;font-stretch:normal;letter-spacing:normal;word-spacing:normal;text-anchor:start;fill:none;stroke:#000000;stroke-linecap:butt;stroke-linejoin:miter;stroke-miterlimit:10.43299961;stroke-opacity:1;stroke-dasharray:none;stroke-dashoffset:0"><path
           id="path4660"
           d="m 485.74,434.34 0.7,0.7 c 1.49,1.5 3.13,3.19 6.52,3.44 0.55,0.05 1,0.05 1,0.95 0,0.39 -0.25,0.59 -0.65,0.59 h -9.07 c -0.29,0 -0.94,0 -0.94,-0.95 0,-0.54 0.5,-0.59 0.74,-0.59 0.35,0 1.8,-0.1 1.8,-1.15 0,-0.85 -1.15,-2.14 -1.35,-2.39 l -11.55,-13.3 -5.48,14.8 c -0.3,0.69 -0.3,0.79 -0.3,0.84 0,1.2 2.44,1.2 2.94,1.2 0.69,0 1.19,0 1.19,0.99 0,0.55 -0.59,0.55 -0.74,0.55 h -11.86 c -0.3,0 -0.95,0 -0.95,-0.99 0,-0.55 0.5,-0.55 1.15,-0.55 2.99,0 3.19,-0.45 3.64,-1.69 l 6.12,-16.4 c 0.05,-0.14 0.2,-0.69 0.2,-0.84 0,-0.15 -1.99,-8.17 -2.24,-9.07 -0.65,-2.74 -0.7,-2.89 -4.68,-2.94 -0.95,0 -1.35,0 -1.35,-0.99 0,-0.55 0.6,-0.55 0.7,-0.55 h 12.65 c 0.35,0 0.95,0 0.95,1 0,0.54 -0.45,0.54 -1.4,0.54 -0.09,0 -1.04,0 -1.89,0.1 -1.04,0.1 -1.34,0.2 -1.34,0.8 0,0.35 0.45,2.09 0.7,3.14 l 1.74,7.02 c 0.25,0.95 0.29,1.1 0.7,1.55 z"
           inkscape:connector-curvature="0"
           style="fill:#b00000;stroke:#b00000;stroke-width:0" /></g>    </g>
    <g
       id="g5958"
       transform="translate(-65,-216)">
      <g
         word-spacing="normal"
         letter-spacing="normal"
         font-size-adjust="none"
         font-stretch="normal"
         font-weight="normal"
         font-variant="normal"
         font-style="normal"
         stroke-miterlimit="10.433"
         xml:space="preserve"
         transform="matrix(1.0629921,0,0,-1.0629921,-186.02362,789.27165)"
         id="g5960"
         style="font-style:normal;font-variant:normal;font-weight:normal;font-stretch:normal;letter-spacing:normal;word-spacing:normal;text-anchor:start;fill:none;stroke:#000000;stroke-linecap:butt;stroke-linejoin:miter;stroke-miterlimit:10.43299961;stroke-opacity:1;stroke-dasharray:none;stroke-dashoffset:0"><path
           id="path5962"
           d="m 476.38,437.48 -0.01,0.17 0,0.17 0,0.16 -0.01,0.08 0,0.08 -0.01,0.08 -0.01,0.07 -0.01,0.08 -0.01,0.07 -0.01,0.07 -0.02,0.07 -0.02,0.07 -0.02,0.06 -0.02,0.07 -0.03,0.05 -0.03,0.06 -0.04,0.05 -0.04,0.05 -0.04,0.05 -0.04,0.04 -0.06,0.04 -0.05,0.03 -0.03,0.02 -0.03,0.01 -0.03,0.02 -0.03,0.01 -0.04,0.01 -0.03,0.01 -0.04,0.01 -0.04,0.01 -0.04,0.01 -0.04,0 -0.04,0.01 -0.04,0 -0.05,0 -0.04,0 c -1,0 -1,-1.04 -1,-1.79 v -29.49 h -13.85 c -0.74,0 -1.79,0 -1.79,-0.99 0,-1 1.05,-1 1.79,-1 h 29.74 c 0.85,0 1.75,0 1.75,1 0,0.99 -0.9,0.99 -1.75,0.99 h -13.89 z"
           inkscape:connector-curvature="0"
           style="fill:#00cc00;stroke:#00cc00;stroke-width:0" /></g>    </g>
    <g
       transform="translate(276,36)"
       id="g9263">
      <g
         style="font-style:normal;font-variant:normal;font-weight:normal;font-stretch:normal;letter-spacing:normal;word-spacing:normal;text-anchor:start;fill:none;stroke:#000000;stroke-linecap:butt;stroke-linejoin:miter;stroke-miterlimit:10.43299961;stroke-opacity:1;stroke-dasharray:none;stroke-dashoffset:0"
         id="g9265"
         transform="matrix(1.0629921,0,0,-1.0629921,-186.02362,789.27165)"
         xml:space="preserve"
         stroke-miterlimit="10.433"
         font-style="normal"
         font-variant="normal"
         font-weight="normal"
         font-stretch="normal"
         font-size-adjust="none"
         letter-spacing="normal"
         word-spacing="normal"><polygon
           style="fill:#b00000;stroke:#b00000;stroke-width:0"
           points="489.35,447 489.95,448.09 475.85,456.06 461.75,448.09 462.3,447 475.8,453.12 "
           id="polygon9267" /><path
           style="fill:#b00000;stroke:#b00000;stroke-width:0"
           inkscape:connector-curvature="0"
           d="m 485.74,434.34 0.7,0.7 c 1.49,1.5 3.13,3.19 6.52,3.44 0.55,0.05 1,0.05 1,0.95 0,0.39 -0.25,0.59 -0.65,0.59 h -9.07 c -0.29,0 -0.94,0 -0.94,-0.95 0,-0.54 0.5,-0.59 0.74,-0.59 0.35,0 1.8,-0.1 1.8,-1.15 0,-0.85 -1.15,-2.14 -1.35,-2.39 l -11.55,-13.3 -5.48,14.8 c -0.3,0.69 -0.3,0.79 -0.3,0.84 0,1.2 2.44,1.2 2.94,1.2 0.69,0 1.19,0 1.19,0.99 0,0.55 -0.59,0.55 -0.74,0.55 h -11.86 c -0.3,0 -0.95,0 -0.95,-0.99 0,-0.55 0.5,-0.55 1.15,-0.55 2.99,0 3.19,-0.45 3.64,-1.69 l 6.12,-16.4 c 0.05,-0.14 0.2,-0.69 0.2,-0.84 0,-0.15 -1.99,-8.17 -2.24,-9.07 -0.65,-2.74 -0.7,-2.89 -4.68,-2.94 -0.95,0 -1.35,0 -1.35,-0.99 0,-0.55 0.6,-0.55 0.7,-0.55 h 12.65 c 0.35,0 0.95,0 0.95,1 0,0.54 -0.45,0.54 -1.4,0.54 -0.09,0 -1.04,0 -1.89,0.1 -1.04,0.1 -1.34,0.2 -1.34,0.8 0,0.35 0.45,2.09 0.7,3.14 l 1.74,7.02 c 0.25,0.95 0.29,1.1 0.7,1.55 z"
           id="path9269" /><path
           style="fill:#b00000;stroke:#b00000;stroke-width:0"
           inkscape:connector-curvature="0"
           d="m 504.71,410.86 0.39,0.09 0.38,0.11 0.38,0.11 0.38,0.12 0.37,0.13 0.37,0.14 0.36,0.15 0.35,0.15 0.34,0.16 0.34,0.17 0.33,0.18 0.32,0.18 0.31,0.19 0.3,0.2 0.29,0.2 0.27,0.21 0.27,0.22 0.25,0.22 0.24,0.23 0.22,0.23 0.21,0.24 0.2,0.25 0.17,0.25 0.17,0.25 0.14,0.26 0.13,0.27 0.11,0.27 0.09,0.27 0.07,0.28 0.06,0.28 0.03,0.29 0.01,0.29 c 0,3 -3.56,5.37 -8.61,5.37 h -10.71 c -0.66,0 -1.12,0 -1.12,-0.77 0,-0.49 0.42,-0.49 1.12,-0.49 0.03,0 0.7,0 1.33,-0.07 0.73,-0.07 0.8,-0.14 0.8,-0.49 0,-0.07 0,-0.24 -0.14,-0.77 l -4.64,-18.51 c -0.28,-1.18 -0.35,-1.47 -3.07,-1.47 -0.59,0 -1.04,0 -1.04,-0.73 0,-0.34 0.24,-0.52 0.56,-0.52 0.66,0 1.46,0.11 2.16,0.11 h 4.53 c 0.73,0 1.6,-0.11 2.34,-0.11 0.17,0 0.73,0 0.73,0.73 0,0.52 -0.35,0.52 -1.16,0.52 -0.55,0 -0.69,0 -1.32,0.07 -0.77,0.11 -0.77,0.18 -0.77,0.53 0,0.03 0,0.24 0.15,0.76 l 2.19,8.83 h 4.74 l 0.04,0.97 h -4.5 l 2.23,8.97 c 0.24,0.97 0.31,1.08 1.08,1.18 h 2.23 c 3.25,0 7.25,0 7.25,-3.59 0,-1.43 -0.66,-3.63 -2.3,-4.88 -1.43,-1.12 -3.59,-1.68 -5.99,-1.68 l -0.04,-0.97 c 3,0 4.29,-1.5 4.29,-3.14 0,-0.46 -0.31,-1.64 -0.49,-2.44 -0.41,-1.61 -0.55,-2.13 -0.55,-2.72 0,-2.76 2.54,-3.84 5.12,-3.84 3.21,0 4.6,3.42 4.6,4.05 0,0.1 -0.07,0.49 -0.59,0.49 -0.45,0 -0.52,-0.25 -0.63,-0.6 -0.49,-1.53 -1.77,-2.96 -3.24,-2.96 -0.91,0 -1.57,0.38 -1.57,2.27 0,0.87 0.21,2.68 0.35,3.62 0.14,0.94 0.14,1.29 0.14,1.64 0,0.42 0,1.53 -0.98,2.58 -0.66,0.73 -1.6,1.19 -2.37,1.47 z"
           id="path9271" /></g>    </g>
    <g
       id="g9381"
       transform="translate(379,-100)">
      <g
         word-spacing="normal"
         letter-spacing="normal"
         font-size-adjust="none"
         font-stretch="normal"
         font-weight="normal"
         font-variant="normal"
         font-style="normal"
         stroke-miterlimit="10.433"
         xml:space="preserve"
         transform="matrix(1.0629921,0,0,-1.0629921,-186.02362,789.27165)"
         id="g9383"
         style="font-style:normal;font-variant:normal;font-weight:normal;font-stretch:normal;letter-spacing:normal;word-spacing:normal;text-anchor:start;fill:none;stroke:#000000;stroke-linecap:butt;stroke-linejoin:miter;stroke-miterlimit:10.43299961;stroke-opacity:1;stroke-dasharray:none;stroke-dashoffset:0"><path
           id="path9385"
           d="m 485.74,434.34 0.7,0.7 c 1.49,1.5 3.13,3.19 6.52,3.44 0.55,0.05 1,0.05 1,0.95 0,0.39 -0.25,0.59 -0.65,0.59 h -9.07 c -0.29,0 -0.94,0 -0.94,-0.95 0,-0.54 0.5,-0.59 0.74,-0.59 0.35,0 1.8,-0.1 1.8,-1.15 0,-0.85 -1.15,-2.14 -1.35,-2.39 l -11.55,-13.3 -5.48,14.8 c -0.3,0.69 -0.3,0.79 -0.3,0.84 0,1.2 2.44,1.2 2.94,1.2 0.69,0 1.19,0 1.19,0.99 0,0.55 -0.59,0.55 -0.74,0.55 h -11.86 c -0.3,0 -0.95,0 -0.95,-0.99 0,-0.55 0.5,-0.55 1.15,-0.55 2.99,0 3.19,-0.45 3.64,-1.69 l 6.12,-16.4 c 0.05,-0.14 0.2,-0.69 0.2,-0.84 0,-0.15 -1.99,-8.17 -2.24,-9.07 -0.65,-2.74 -0.7,-2.89 -4.68,-2.94 -0.95,0 -1.35,0 -1.35,-0.99 0,-0.55 0.6,-0.55 0.7,-0.55 h 12.65 c 0.35,0 0.95,0 0.95,1 0,0.54 -0.45,0.54 -1.4,0.54 -0.09,0 -1.04,0 -1.89,0.1 -1.04,0.1 -1.34,0.2 -1.34,0.8 0,0.35 0.45,2.09 0.7,3.14 l 1.74,7.02 c 0.25,0.95 0.29,1.1 0.7,1.55 z"
           inkscape:connector-curvature="0"
           style="fill:#0000d4;stroke:#0000d4;stroke-width:0" /><path
           id="path9387"
           d="m 539.83,417.46 0.16,0 0.16,0 0.15,0 0.08,0.01 0.08,0 0.07,0.01 0.08,0.01 0.07,0.01 0.07,0.01 0.07,0.01 0.07,0.02 0.06,0.02 0.07,0.02 0.06,0.03 0.05,0.02 0.06,0.04 0.05,0.03 0.05,0.04 0.05,0.04 0.04,0.05 0.04,0.05 0.01,0.02 0.02,0.03 0.02,0.03 0.01,0.03 0.02,0.03 0.01,0.04 0.01,0.03 0.01,0.03 0.01,0.04 0.01,0.04 0,0.04 0.01,0.04 0,0.04 0.01,0.04 0,0.05 0,0.04 c 0,1 -0.9,1 -1.74,1 h -26.95 c -0.85,0 -1.75,0 -1.75,-1 0,-0.99 0.9,-0.99 1.75,-0.99 z"
           inkscape:connector-curvature="0"
           style="fill:#0000d4;stroke:#0000d4;stroke-width:0" /><polygon
           id="polygon9389"
           points="590.35,447 590.95,448.09 576.85,456.06 562.75,448.09 563.3,447 576.8,453.12 "
           style="fill:#0000d4;stroke:#0000d4;stroke-width:0" /><path
           id="path9391"
           d="m 585.74,434.34 0.7,0.7 c 1.49,1.5 3.13,3.19 6.52,3.44 0.55,0.05 1,0.05 1,0.95 0,0.39 -0.25,0.59 -0.65,0.59 h -9.07 c -0.29,0 -0.94,0 -0.94,-0.95 0,-0.54 0.5,-0.59 0.74,-0.59 0.36,0 1.8,-0.1 1.8,-1.15 0,-0.85 -1.15,-2.14 -1.35,-2.39 l -11.55,-13.3 -5.48,14.8 c -0.3,0.69 -0.3,0.79 -0.3,0.84 0,1.2 2.44,1.2 2.94,1.2 0.69,0 1.19,0 1.19,0.99 0,0.55 -0.59,0.55 -0.74,0.55 h -11.86 c -0.3,0 -0.95,0 -0.95,-0.99 0,-0.55 0.5,-0.55 1.15,-0.55 2.99,0 3.19,-0.45 3.64,-1.69 l 6.12,-16.4 c 0.05,-0.14 0.2,-0.69 0.2,-0.84 0,-0.15 -1.99,-8.17 -2.24,-9.07 -0.65,-2.74 -0.7,-2.89 -4.68,-2.94 -0.95,0 -1.35,0 -1.35,-0.99 0,-0.55 0.6,-0.55 0.7,-0.55 h 12.65 c 0.35,0 0.95,0 0.95,1 0,0.54 -0.45,0.54 -1.4,0.54 -0.09,0 -1.04,0 -1.89,0.1 -1.04,0.1 -1.34,0.2 -1.34,0.8 0,0.35 0.45,2.09 0.7,3.14 l 1.74,7.02 c 0.25,0.95 0.29,1.1 0.7,1.55 z"
           inkscape:connector-curvature="0"
           style="fill:#0000d4;stroke:#0000d4;stroke-width:0" /><path
           id="path9393"
           d="m 605.71,410.86 0.39,0.09 0.38,0.11 0.38,0.11 0.38,0.12 0.37,0.13 0.37,0.14 0.36,0.15 0.35,0.15 0.34,0.16 0.34,0.17 0.33,0.18 0.32,0.18 0.31,0.19 0.3,0.2 0.29,0.2 0.27,0.21 0.27,0.22 0.25,0.22 0.24,0.23 0.22,0.23 0.21,0.24 0.2,0.25 0.17,0.25 0.17,0.25 0.14,0.26 0.13,0.27 0.11,0.27 0.09,0.27 0.07,0.28 0.06,0.28 0.03,0.29 0.01,0.29 c 0,3 -3.56,5.37 -8.61,5.37 h -10.71 c -0.66,0 -1.12,0 -1.12,-0.77 0,-0.49 0.42,-0.49 1.12,-0.49 0.03,0 0.7,0 1.33,-0.07 0.73,-0.07 0.8,-0.14 0.8,-0.49 0,-0.07 0,-0.24 -0.14,-0.77 l -4.64,-18.51 c -0.28,-1.18 -0.35,-1.47 -3.07,-1.47 -0.59,0 -1.04,0 -1.04,-0.73 0,-0.34 0.24,-0.52 0.55,-0.52 0.67,0 1.47,0.11 2.17,0.11 h 4.53 c 0.73,0 1.6,-0.11 2.34,-0.11 0.17,0 0.73,0 0.73,0.73 0,0.52 -0.35,0.52 -1.15,0.52 -0.56,0 -0.7,0 -1.33,0.07 -0.77,0.11 -0.77,0.18 -0.77,0.53 0,0.03 0,0.24 0.15,0.76 l 2.19,8.83 h 4.74 l 0.04,0.97 h -4.5 l 2.23,8.97 c 0.25,0.97 0.32,1.08 1.08,1.18 h 2.24 c 3.24,0 7.25,0 7.25,-3.59 0,-1.43 -0.67,-3.63 -2.31,-4.88 -1.43,-1.12 -3.59,-1.68 -5.99,-1.68 l -0.04,-0.97 c 3,0 4.29,-1.5 4.29,-3.14 0,-0.46 -0.31,-1.64 -0.49,-2.44 -0.41,-1.61 -0.55,-2.13 -0.55,-2.72 0,-2.76 2.54,-3.84 5.12,-3.84 3.21,0 4.6,3.42 4.6,4.05 0,0.1 -0.07,0.49 -0.59,0.49 -0.45,0 -0.52,-0.25 -0.63,-0.6 -0.48,-1.53 -1.78,-2.96 -3.24,-2.96 -0.91,0 -1.57,0.38 -1.57,2.27 0,0.87 0.21,2.68 0.35,3.62 0.14,0.94 0.14,1.29 0.14,1.64 0,0.42 0,1.53 -0.98,2.58 -0.66,0.73 -1.6,1.19 -2.37,1.47 z"
           inkscape:connector-curvature="0"
           style="fill:#0000d4;stroke:#0000d4;stroke-width:0" /></g>    </g>
    <g
       transform="translate(350,120)"
       id="g3082">
      <g
         style="font-style:normal;font-variant:normal;font-weight:normal;font-stretch:normal;letter-spacing:normal;word-spacing:normal;text-anchor:start;fill:none;stroke:#000000;stroke-linecap:butt;stroke-linejoin:miter;stroke-miterlimit:10.43299961;stroke-opacity:1;stroke-dasharray:none;stroke-dashoffset:0"
         id="g3084"
         transform="matrix(1.0629921,0,0,-1.0629921,-186.02362,789.27165)"
         xml:space="preserve"
         stroke-miterlimit="10.433"
         font-style="normal"
         font-variant="normal"
         font-weight="normal"
         font-stretch="normal"
         font-size-adjust="none"
         letter-spacing="normal"
         word-spacing="normal"><path
           style="fill:#00cc00;stroke:#00cc00;stroke-width:0"
           inkscape:connector-curvature="0"
           d="m 470.64,437.88 0,0.05 0,0.06 0,0.05 0,0.05 0,0.05 0,0.05 0,0.04 0,0.05 0,0.04 0,0.04 0,0.04 0,0.04 0,0.04 -0.01,0.04 0,0.03 0,0.04 -0.01,0.03 0,0.03 -0.01,0.06 -0.01,0.05 -0.02,0.05 -0.01,0.05 -0.02,0.04 -0.02,0.04 -0.03,0.04 -0.03,0.03 -0.03,0.02 -0.03,0.03 -0.04,0.02 -0.05,0.02 -0.02,0.01 -0.03,0.01 -0.02,0 -0.03,0.01 -0.03,0.01 -0.03,0 -0.03,0.01 -0.03,0 -0.03,0.01 -0.04,0 -0.04,0 -0.03,0 -0.04,0.01 -0.04,0 -0.04,0 -0.05,0 -0.04,0 -0.05,0 -0.05,0.01 -0.05,0 -0.05,0 -0.05,0 c -3.09,-3.19 -7.47,-3.19 -9.07,-3.19 v -1.55 c 1,0 3.94,0 6.53,1.3 v -25.81 c 0,-1.79 -0.15,-2.39 -4.63,-2.39 h -1.6 V 406 h 16.14 v 1.54 h -1.59 c -4.49,0 -4.64,0.55 -4.64,2.39 z"
           id="path3086" /><path
           style="fill:#00cc00;stroke:#00cc00;stroke-width:0"
           inkscape:connector-curvature="0"
           d="m 490.11,406.05 0,0.31 -0.01,0.29 -0.02,0.29 -0.02,0.28 -0.04,0.27 -0.03,0.26 -0.05,0.26 -0.05,0.24 -0.06,0.24 -0.07,0.23 -0.07,0.22 -0.07,0.21 -0.09,0.2 -0.09,0.19 -0.09,0.18 -0.1,0.18 -0.11,0.16 -0.11,0.15 -0.12,0.15 -0.12,0.13 -0.13,0.13 -0.13,0.11 -0.14,0.1 -0.15,0.1 -0.15,0.08 -0.15,0.07 -0.16,0.06 -0.16,0.05 -0.17,0.04 -0.17,0.03 -0.17,0.02 -0.18,0 c -1.65,0 -2.64,-1.24 -2.64,-2.64 0,-1.34 0.99,-2.64 2.64,-2.64 0.59,0 1.24,0.2 1.74,0.65 0.15,0.1 0.2,0.15 0.25,0.15 0.04,0 0.1,-0.05 0.1,-0.75 0,-3.69 -1.75,-6.67 -3.39,-8.32 -0.55,-0.55 -0.55,-0.65 -0.55,-0.8 0,-0.34 0.25,-0.54 0.5,-0.54 0.55,0 4.53,3.83 4.53,9.66 z"
           id="path3088" /><path
           style="fill:#00cc00;stroke:#00cc00;stroke-width:0"
           inkscape:connector-curvature="0"
           d="m 527.16,426.47 -4.18,9.92 c -0.16,0.4 -0.25,0.59 -0.25,0.65 0,0.29 0.84,1.24 2.93,1.44 0.5,0.05 1,0.1 1,0.95 0,0.59 -0.6,0.59 -0.75,0.59 h -11.85 c -0.3,0 -0.9,0 -0.9,-0.99 0,-0.55 0.5,-0.55 1.15,-0.55 2.99,0 3.28,-0.5 3.73,-1.6 l 5.88,-13.9 -10.51,-11.3 -0.65,-0.55 c -2.44,-2.64 -4.78,-3.43 -7.32,-3.59 -0.65,-0.04 -1.1,-0.04 -1.1,-0.99 0,-0.05 0,-0.55 0.65,-0.55 h 10.26 c 0.3,0 0.9,0 0.9,1 0,0.5 -0.5,0.54 -0.6,0.54 -0.45,0.05 -1.99,0.16 -1.99,1.55 0,0.8 0.75,1.59 1.35,2.24 l 5.07,5.38 4.49,4.88 5.03,-11.9 c 0.2,-0.55 0.25,-0.6 0.25,-0.7 0,-0.4 -0.95,-1.25 -2.89,-1.45 -0.55,-0.04 -1,-0.09 -1,-0.94 0,-0.6 0.55,-0.6 0.75,-0.6 h 11.81 c 0.35,0 0.94,0 0.94,0.95 0,0.59 -0.49,0.59 -0.89,0.59 -3.34,0.05 -3.44,0.2 -4.29,2.19 -1.94,4.64 -5.28,12.41 -6.42,15.4 3.39,3.48 8.62,9.41 10.21,10.81 1.44,1.19 3.33,2.39 6.33,2.54 0.64,0.05 1.09,0.05 1.09,0.99 0,0.05 0,0.55 -0.65,0.55 h -10.21 c -0.3,0 -0.94,0 -0.94,-0.99 0,-0.35 0.25,-0.5 0.59,-0.55 0.45,-0.05 2,-0.15 2,-1.55 0,-0.69 -0.55,-1.34 -0.95,-1.79 z"
           id="path3090" /><path
           style="fill:#00cc00;stroke:#00cc00;stroke-width:0"
           inkscape:connector-curvature="0"
           d="m 555.68,421.18 0,0.04 0,0.04 0,0.04 0,0.04 0,0.04 0,0.04 0,0.03 0,0.04 -0.01,0.03 0,0.03 0,0.04 0,0.03 -0.01,0.02 0,0.03 0,0.03 -0.01,0.03 0,0.02 0,0.02 -0.02,0.05 -0.01,0.04 -0.01,0.04 -0.02,0.03 -0.02,0.03 -0.02,0.03 -0.03,0.03 -0.02,0.02 -0.03,0.02 -0.04,0.02 -0.03,0.01 -0.04,0.01 -0.05,0.02 -0.05,0 -0.02,0.01 -0.03,0 -0.03,0.01 -0.02,0 -0.03,0 -0.03,0 -0.04,0 -0.03,0.01 -0.03,0 -0.04,0 -0.03,0 -0.04,0 -0.04,0 -0.04,0 -0.04,0 -0.04,0 -0.05,0 -0.04,0 c -2.24,-2.19 -5.41,-2.23 -6.84,-2.23 v -1.25 c 0.84,0 3.14,0 5.05,0.97 v -17.78 c 0,-1.15 0,-1.61 -3.48,-1.61 h -1.33 V 399 h 12.45 v 1.25 h -1.32 c -3.49,0 -3.49,0.46 -3.49,1.61 z"
           id="path3092" /><path
           style="fill:#00cc00;stroke:#00cc00;stroke-width:0"
           inkscape:connector-curvature="0"
           d="m 576.11,406.05 0,0.31 -0.01,0.29 -0.02,0.29 -0.02,0.28 -0.04,0.27 -0.03,0.26 -0.05,0.26 -0.05,0.24 -0.06,0.24 -0.07,0.23 -0.07,0.22 -0.07,0.21 -0.09,0.2 -0.09,0.19 -0.09,0.18 -0.1,0.18 -0.11,0.16 -0.11,0.15 -0.12,0.15 -0.12,0.13 -0.13,0.13 -0.13,0.11 -0.14,0.1 -0.15,0.1 -0.15,0.08 -0.15,0.07 -0.16,0.06 -0.16,0.05 -0.17,0.04 -0.17,0.03 -0.17,0.02 -0.18,0 c -1.65,0 -2.65,-1.24 -2.65,-2.64 0,-1.34 1,-2.64 2.65,-2.64 0.59,0 1.24,0.2 1.74,0.65 0.15,0.1 0.2,0.15 0.25,0.15 0.05,0 0.1,-0.05 0.1,-0.75 0,-3.69 -1.75,-6.67 -3.39,-8.32 -0.55,-0.55 -0.55,-0.65 -0.55,-0.8 0,-0.34 0.25,-0.54 0.5,-0.54 0.55,0 4.53,3.83 4.53,9.66 z"
           id="path3094" /><path
           style="fill:#00cc00;stroke:#00cc00;stroke-width:0"
           inkscape:connector-curvature="0"
           d="m 612.16,426.47 -4.18,9.92 c -0.16,0.4 -0.25,0.59 -0.25,0.65 0,0.29 0.84,1.24 2.93,1.44 0.5,0.05 1,0.1 1,0.95 0,0.59 -0.6,0.59 -0.75,0.59 h -11.85 c -0.3,0 -0.9,0 -0.9,-0.99 0,-0.55 0.5,-0.55 1.15,-0.55 2.99,0 3.28,-0.5 3.73,-1.6 l 5.88,-13.9 -10.51,-11.3 -0.65,-0.55 c -2.44,-2.64 -4.78,-3.43 -7.32,-3.59 -0.65,-0.04 -1.1,-0.04 -1.1,-0.99 0,-0.05 0,-0.55 0.65,-0.55 h 10.26 c 0.3,0 0.9,0 0.9,1 0,0.5 -0.5,0.54 -0.6,0.54 -0.45,0.05 -1.99,0.16 -1.99,1.55 0,0.8 0.75,1.59 1.35,2.24 l 5.07,5.38 4.49,4.88 5.03,-11.9 c 0.2,-0.55 0.25,-0.6 0.25,-0.7 0,-0.4 -0.95,-1.25 -2.89,-1.45 -0.55,-0.04 -1,-0.09 -1,-0.94 0,-0.6 0.55,-0.6 0.75,-0.6 h 11.81 c 0.35,0 0.94,0 0.94,0.95 0,0.59 -0.49,0.59 -0.89,0.59 -3.34,0.05 -3.44,0.2 -4.29,2.19 -1.94,4.64 -5.28,12.41 -6.42,15.4 3.39,3.48 8.62,9.41 10.21,10.81 1.44,1.19 3.33,2.39 6.33,2.54 0.64,0.05 1.09,0.05 1.09,0.99 0,0.05 0,0.55 -0.65,0.55 h -10.21 c -0.3,0 -0.94,0 -0.94,-0.99 0,-0.35 0.25,-0.5 0.59,-0.55 0.45,-0.05 2,-0.15 2,-1.55 0,-0.69 -0.55,-1.34 -0.95,-1.79 z"
           id="path3096" /><path
           style="fill:#00cc00;stroke:#00cc00;stroke-width:0"
           inkscape:connector-curvature="0"
           d="m 648.45,404.72 v 1.25 h -3.88 v 15.56 c 0,0.73 0,0.97 -0.76,0.97 -0.42,0 -0.56,0 -0.91,-0.49 l -11.54,-16.04 v -1.25 h 10.25 l 0.24,1.25 h -9.2 l 9.2,12.76 v -12.76 l -0.24,-1.25 v -2.86 c 0,-1.19 0,-1.61 -2.83,-1.61 h -0.94 V 399 h 10.5 v 1.25 h -0.94 c -2.83,0 -2.83,0.42 -2.83,1.61 v 2.86 z"
           id="path3098" /><path
           style="fill:#00cc00;stroke:#00cc00;stroke-width:0"
           inkscape:connector-curvature="0"
           d="m 662.11,406.05 0,0.31 -0.01,0.29 -0.02,0.29 -0.02,0.28 -0.04,0.27 -0.03,0.26 -0.05,0.26 -0.05,0.24 -0.06,0.24 -0.07,0.23 -0.07,0.22 -0.07,0.21 -0.09,0.2 -0.09,0.19 -0.09,0.18 -0.1,0.18 -0.11,0.16 -0.11,0.15 -0.12,0.15 -0.12,0.13 -0.13,0.13 -0.13,0.11 -0.14,0.1 -0.15,0.1 -0.15,0.08 -0.15,0.07 -0.16,0.06 -0.16,0.05 -0.17,0.04 -0.17,0.03 -0.17,0.02 -0.18,0 c -1.65,0 -2.65,-1.24 -2.65,-2.64 0,-1.34 1,-2.64 2.65,-2.64 0.59,0 1.24,0.2 1.74,0.65 0.15,0.1 0.2,0.15 0.25,0.15 0.05,0 0.1,-0.05 0.1,-0.75 0,-3.69 -1.75,-6.67 -3.39,-8.32 -0.55,-0.55 -0.55,-0.65 -0.55,-0.8 0,-0.34 0.25,-0.54 0.5,-0.54 0.55,0 4.53,3.83 4.53,9.66 z"
           id="path3100" /><path
           style="fill:#00cc00;stroke:#00cc00;stroke-width:0"
           inkscape:connector-curvature="0"
           d="m 698.16,426.47 -4.18,9.92 c -0.16,0.4 -0.25,0.59 -0.25,0.65 0,0.29 0.84,1.24 2.93,1.44 0.5,0.05 1,0.1 1,0.95 0,0.59 -0.6,0.59 -0.75,0.59 h -11.85 c -0.3,0 -0.9,0 -0.9,-0.99 0,-0.55 0.5,-0.55 1.15,-0.55 2.99,0 3.28,-0.5 3.73,-1.6 l 5.88,-13.9 -10.51,-11.3 -0.65,-0.55 c -2.44,-2.64 -4.78,-3.43 -7.32,-3.59 -0.65,-0.04 -1.1,-0.04 -1.1,-0.99 0,-0.05 0,-0.55 0.65,-0.55 h 10.26 c 0.3,0 0.9,0 0.9,1 0,0.5 -0.5,0.54 -0.6,0.54 -0.45,0.05 -1.99,0.16 -1.99,1.55 0,0.8 0.75,1.59 1.35,2.24 l 5.07,5.38 4.49,4.88 5.03,-11.9 c 0.2,-0.55 0.25,-0.6 0.25,-0.7 0,-0.4 -0.95,-1.25 -2.89,-1.45 -0.55,-0.04 -1,-0.09 -1,-0.94 0,-0.6 0.55,-0.6 0.75,-0.6 h 11.81 c 0.35,0 0.94,0 0.94,0.95 0,0.59 -0.49,0.59 -0.89,0.59 -3.34,0.05 -3.44,0.2 -4.29,2.19 -1.94,4.64 -5.28,12.41 -6.42,15.4 3.39,3.48 8.62,9.41 10.21,10.81 1.44,1.19 3.33,2.39 6.33,2.54 0.64,0.05 1.09,0.05 1.09,0.99 0,0.05 0,0.55 -0.65,0.55 h -10.21 c -0.3,0 -0.94,0 -0.94,-0.99 0,-0.35 0.25,-0.5 0.59,-0.55 0.45,-0.05 2,-0.15 2,-1.55 0,-0.69 -0.55,-1.34 -0.95,-1.79 z"
           id="path3102" /><path
           style="fill:#00cc00;stroke:#00cc00;stroke-width:0"
           inkscape:connector-curvature="0"
           d="m 720.41,418.46 0.16,-0.04 0.16,-0.04 0.16,-0.04 0.15,-0.03 0.15,-0.03 0.14,-0.03 0.14,-0.03 0.14,-0.02 0.13,-0.03 0.13,-0.02 0.12,-0.02 0.12,-0.02 0.12,-0.01 0.11,-0.02 0.11,-0.01 0.1,-0.01 0.11,-0.01 0.09,-0.01 0.1,-0.01 0.09,0 0.09,-0.01 0.08,0 0.08,-0.01 0.08,0 0.08,0 0.07,0 0.07,0 0.06,-0.01 0.07,0 0.06,0 0.05,0 0.05,0 c 4.61,0 7.33,3.14 7.33,3.66 0,0.39 -0.24,0.49 -0.42,0.49 -0.07,0 -0.14,0 -0.28,-0.1 -0.84,-0.32 -2.68,-1.01 -5.26,-1.01 -0.98,0 -2.83,0.07 -5.1,0.94 -0.34,0.17 -0.41,0.17 -0.45,0.17 -0.45,0 -0.45,-0.38 -0.45,-0.94 v -10.28 c 0,-0.6 0,-1.02 0.56,-1.02 0.31,0 0.34,0.07 0.7,0.49 1.49,1.92 3.62,2.2 4.84,2.2 2.09,0 3.03,-1.67 3.21,-1.96 0.63,-1.14 0.84,-2.47 0.84,-4.49 0,-1.05 0,-3.11 -1.05,-4.64 -0.87,-1.26 -2.37,-2.09 -4.08,-2.09 -2.27,0 -4.6,1.25 -5.47,3.56 1.32,-0.11 1.98,0.76 1.98,1.7 0,1.5 -1.28,1.78 -1.74,1.78 -0.07,0 -1.74,0 -1.74,-1.88 0,-3.14 2.85,-6.28 7.04,-6.28 4.46,0 8.37,3.31 8.37,7.71 0,3.94 -3,7.56 -7.33,7.56 -1.53,0 -3.34,-0.38 -4.87,-1.7 z"
           id="path3104" /><path
           style="fill:#00cc00;stroke:#00cc00;stroke-width:0"
           inkscape:connector-curvature="0"
           d="m 748.11,406.05 0,0.31 -0.01,0.29 -0.02,0.29 -0.02,0.28 -0.04,0.27 -0.03,0.26 -0.05,0.26 -0.05,0.24 -0.06,0.24 -0.07,0.23 -0.07,0.22 -0.07,0.21 -0.09,0.2 -0.09,0.19 -0.09,0.18 -0.1,0.18 -0.11,0.16 -0.11,0.15 -0.12,0.15 -0.12,0.13 -0.13,0.13 -0.13,0.11 -0.14,0.1 -0.15,0.1 -0.15,0.08 -0.15,0.07 -0.16,0.06 -0.16,0.05 -0.17,0.04 -0.17,0.03 -0.17,0.02 -0.18,0 c -1.65,0 -2.65,-1.24 -2.65,-2.64 0,-1.34 1,-2.64 2.65,-2.64 0.59,0 1.24,0.2 1.74,0.65 0.15,0.1 0.2,0.15 0.25,0.15 0.05,0 0.1,-0.05 0.1,-0.75 0,-3.69 -1.75,-6.67 -3.39,-8.32 -0.55,-0.55 -0.55,-0.65 -0.55,-0.8 0,-0.34 0.25,-0.54 0.5,-0.54 0.55,0 4.53,3.83 4.53,9.66 z"
           id="path3106" /><path
           style="fill:#00cc00;stroke:#00cc00;stroke-width:0"
           inkscape:connector-curvature="0"
           d="m 784.16,426.47 -4.18,9.92 c -0.16,0.4 -0.25,0.59 -0.25,0.65 0,0.29 0.84,1.24 2.93,1.44 0.5,0.05 1,0.1 1,0.95 0,0.59 -0.6,0.59 -0.75,0.59 h -11.85 c -0.3,0 -0.9,0 -0.9,-0.99 0,-0.55 0.5,-0.55 1.15,-0.55 2.99,0 3.28,-0.5 3.73,-1.6 l 5.88,-13.9 -10.51,-11.3 -0.65,-0.55 c -2.44,-2.64 -4.78,-3.43 -7.32,-3.59 -0.65,-0.04 -1.1,-0.04 -1.1,-0.99 0,-0.05 0,-0.55 0.65,-0.55 h 10.26 c 0.3,0 0.9,0 0.9,1 0,0.5 -0.5,0.54 -0.6,0.54 -0.45,0.05 -1.99,0.16 -1.99,1.55 0,0.8 0.75,1.59 1.35,2.24 l 5.07,5.38 4.49,4.88 5.03,-11.9 c 0.2,-0.55 0.25,-0.6 0.25,-0.7 0,-0.4 -0.95,-1.25 -2.89,-1.45 -0.55,-0.04 -1,-0.09 -1,-0.94 0,-0.6 0.55,-0.6 0.75,-0.6 h 11.81 c 0.35,0 0.94,0 0.94,0.95 0,0.59 -0.49,0.59 -0.89,0.59 -3.34,0.05 -3.44,0.2 -4.29,2.19 -1.94,4.64 -5.28,12.41 -6.42,15.4 3.39,3.48 8.62,9.41 10.21,10.81 1.44,1.19 3.33,2.39 6.33,2.54 0.64,0.05 1.09,0.05 1.09,0.99 0,0.05 0,0.55 -0.65,0.55 h -10.21 c -0.3,0 -0.94,0 -0.94,-0.99 0,-0.35 0.25,-0.5 0.59,-0.55 0.45,-0.05 2,-0.15 2,-1.55 0,-0.69 -0.55,-1.34 -0.95,-1.79 z"
           id="path3108" /><path
           style="fill:#00cc00;stroke:#00cc00;stroke-width:0"
           inkscape:connector-curvature="0"
           d="m 806.23,410.4 0,0.53 0.01,0.53 0.02,0.52 0.03,0.51 0.04,0.51 0.05,0.49 0.06,0.49 0.08,0.48 0.09,0.47 0.11,0.46 0.13,0.46 0.15,0.44 0.08,0.22 0.08,0.22 0.09,0.21 0.1,0.21 0.11,0.21 0.1,0.2 0.12,0.21 0.12,0.2 c 1.18,1.88 3.07,3.17 5.3,3.17 1.05,0 2.44,-0.28 3.14,-1.22 -0.87,-0.07 -1.61,-0.66 -1.61,-1.67 0,-0.87 0.6,-1.64 1.64,-1.64 1.05,0 1.68,0.69 1.68,1.71 0,2.02 -1.47,3.83 -4.92,3.83 -5.02,0 -10.15,-4.6 -10.15,-12.1 0,-9.03 4.26,-11.75 8.09,-11.75 4.26,0 7.95,3.25 7.95,7.81 0,4.43 -3.52,7.71 -7.6,7.71 l -0.17,-0.98 c 1.6,0 2.68,-0.63 3.55,-1.91 0.84,-1.33 0.87,-2.79 0.87,-4.82 0,-1.99 0,-3.45 -0.94,-4.81 -0.83,-1.22 -1.95,-1.88 -3.66,-1.88 h 0 c -1.74,0 -3.1,1.01 -3.83,2.54 -0.53,1.05 -0.8,2.79 -0.8,4.88 0,3.39 2.01,6 4.81,6 l 0.17,0.98 c -2.79,0 -4.32,-1.85 -5.09,-3.42 z"
           id="path3110" /></g>    </g>
    <g
       id="g3234"
       transform="translate(-163,339)">
      <g
         word-spacing="normal"
         letter-spacing="normal"
         font-size-adjust="none"
         font-stretch="normal"
         font-weight="normal"
         font-variant="normal"
         font-style="normal"
         stroke-miterlimit="10.433"
         xml:space="preserve"
         transform="matrix(1.0629921,0,0,-1.0629921,-186.02362,789.27165)"
         id="g3236"
         style="font-style:normal;font-variant:normal;font-weight:normal;font-stretch:normal;letter-spacing:normal;word-spacing:normal;text-anchor:start;fill:none;stroke:#000000;stroke-linecap:butt;stroke-linejoin:miter;stroke-miterlimit:10.43299961;stroke-opacity:1;stroke-dasharray:none;stroke-dashoffset:0"><path
           id="path3238"
           d="m 480.16,426.47 -4.18,9.92 c -0.16,0.4 -0.25,0.59 -0.25,0.65 0,0.29 0.84,1.24 2.93,1.44 0.5,0.05 1,0.1 1,0.95 0,0.59 -0.6,0.59 -0.75,0.59 h -11.85 c -0.3,0 -0.9,0 -0.9,-0.99 0,-0.55 0.5,-0.55 1.15,-0.55 2.99,0 3.28,-0.5 3.73,-1.6 l 5.88,-13.9 -10.51,-11.3 -0.65,-0.55 c -2.44,-2.64 -4.78,-3.43 -7.32,-3.59 -0.65,-0.04 -1.1,-0.04 -1.1,-0.99 0,-0.05 0,-0.55 0.65,-0.55 h 10.26 c 0.3,0 0.9,0 0.9,1 0,0.5 -0.5,0.54 -0.6,0.54 -0.44,0.05 -1.99,0.16 -1.99,1.55 0,0.8 0.75,1.59 1.35,2.24 l 5.07,5.38 4.49,4.88 5.03,-11.9 c 0.2,-0.55 0.25,-0.6 0.25,-0.7 0,-0.4 -0.95,-1.25 -2.89,-1.45 -0.55,-0.04 -1,-0.09 -1,-0.94 0,-0.6 0.55,-0.6 0.75,-0.6 h 11.81 c 0.35,0 0.94,0 0.94,0.95 0,0.59 -0.49,0.59 -0.89,0.59 -3.34,0.05 -3.44,0.2 -4.29,2.19 -1.94,4.64 -5.28,12.41 -6.42,15.4 3.38,3.48 8.62,9.41 10.21,10.81 1.44,1.19 3.33,2.39 6.33,2.54 0.64,0.05 1.09,0.05 1.09,0.99 0,0.05 0,0.55 -0.65,0.55 h -10.21 c -0.3,0 -0.94,0 -0.94,-0.99 0,-0.35 0.25,-0.5 0.59,-0.55 0.45,-0.05 2,-0.15 2,-1.55 0,-0.69 -0.55,-1.34 -0.95,-1.79 z"
           inkscape:connector-curvature="0"
           style="fill:#00cc00;stroke:#00cc00;stroke-width:0" /><path
           id="path3240"
           d="m 514.61,405.35 h -1.19 c -0.1,-0.77 -0.45,-2.83 -0.9,-3.18 -0.28,-0.21 -2.97,-0.21 -3.45,-0.21 h -6.42 c 3.66,3.25 4.88,4.22 6.97,5.86 2.58,2.06 4.99,4.22 4.99,7.54 0,4.21 -3.7,6.79 -8.16,6.79 -4.33,0 -7.25,-3.03 -7.25,-6.24 0,-1.78 1.5,-1.95 1.84,-1.95 0.84,0 1.85,0.59 1.85,1.85 0,0.62 -0.24,1.85 -2.05,1.85 1.08,2.47 3.45,3.24 5.09,3.24 3.48,0 5.3,-2.72 5.3,-5.54 0,-3.04 -2.16,-5.45 -3.28,-6.7 l -8.4,-8.3 c -0.35,-0.31 -0.35,-0.38 -0.35,-1.36 h 14.36 z"
           inkscape:connector-curvature="0"
           style="fill:#00cc00;stroke:#00cc00;stroke-width:0" /><path
           id="path3242"
           d="m 529.11,406.05 0,0.31 -0.01,0.29 -0.02,0.29 -0.02,0.28 -0.04,0.27 -0.03,0.26 -0.05,0.26 -0.05,0.24 -0.06,0.24 -0.07,0.23 -0.07,0.22 -0.07,0.21 -0.09,0.2 -0.09,0.19 -0.09,0.18 -0.1,0.18 -0.11,0.16 -0.11,0.15 -0.12,0.15 -0.12,0.13 -0.13,0.13 -0.13,0.11 -0.14,0.1 -0.15,0.1 -0.15,0.08 -0.15,0.07 -0.16,0.06 -0.16,0.05 -0.17,0.04 -0.17,0.03 -0.17,0.02 -0.18,0 c -1.65,0 -2.65,-1.24 -2.65,-2.64 0,-1.34 1,-2.64 2.65,-2.64 0.59,0 1.24,0.2 1.74,0.65 0.15,0.1 0.2,0.15 0.25,0.15 0.05,0 0.1,-0.05 0.1,-0.75 0,-3.69 -1.75,-6.67 -3.39,-8.32 -0.55,-0.55 -0.55,-0.65 -0.55,-0.8 0,-0.34 0.25,-0.54 0.5,-0.54 0.55,0 4.53,3.83 4.53,9.66 z"
           inkscape:connector-curvature="0"
           style="fill:#00cc00;stroke:#00cc00;stroke-width:0" /><path
           id="path3244"
           d="m 565.16,426.47 -4.18,9.92 c -0.16,0.4 -0.25,0.59 -0.25,0.65 0,0.29 0.84,1.24 2.93,1.44 0.5,0.05 1,0.1 1,0.95 0,0.59 -0.6,0.59 -0.75,0.59 h -11.85 c -0.3,0 -0.9,0 -0.9,-0.99 0,-0.55 0.5,-0.55 1.15,-0.55 2.99,0 3.28,-0.5 3.73,-1.6 l 5.88,-13.9 -10.51,-11.3 -0.65,-0.55 c -2.44,-2.64 -4.78,-3.43 -7.32,-3.59 -0.65,-0.04 -1.1,-0.04 -1.1,-0.99 0,-0.05 0,-0.55 0.65,-0.55 h 10.26 c 0.3,0 0.9,0 0.9,1 0,0.5 -0.5,0.54 -0.6,0.54 -0.45,0.05 -1.99,0.16 -1.99,1.55 0,0.8 0.75,1.59 1.35,2.24 l 5.07,5.38 4.49,4.88 5.03,-11.9 c 0.2,-0.55 0.25,-0.6 0.25,-0.7 0,-0.4 -0.95,-1.25 -2.89,-1.45 -0.55,-0.04 -1,-0.09 -1,-0.94 0,-0.6 0.55,-0.6 0.75,-0.6 h 11.81 c 0.35,0 0.94,0 0.94,0.95 0,0.59 -0.49,0.59 -0.89,0.59 -3.34,0.05 -3.44,0.2 -4.29,2.19 -1.94,4.64 -5.28,12.41 -6.42,15.4 3.39,3.48 8.62,9.41 10.21,10.81 1.44,1.19 3.33,2.39 6.33,2.54 0.64,0.05 1.09,0.05 1.09,0.99 0,0.05 0,0.55 -0.65,0.55 h -10.21 c -0.3,0 -0.94,0 -0.94,-0.99 0,-0.35 0.25,-0.5 0.59,-0.55 0.45,-0.05 2,-0.15 2,-1.55 0,-0.69 -0.55,-1.34 -0.95,-1.79 z"
           inkscape:connector-curvature="0"
           style="fill:#00cc00;stroke:#00cc00;stroke-width:0" /><path
           id="path3246"
           d="m 591.52,410.64 0.25,0 0.25,-0.02 0.24,-0.02 0.24,-0.04 0.23,-0.05 0.23,-0.06 0.22,-0.07 0.22,-0.09 0.21,-0.09 0.2,-0.11 0.19,-0.11 0.19,-0.13 0.18,-0.13 0.18,-0.15 0.17,-0.16 0.15,-0.17 0.16,-0.18 0.14,-0.2 0.13,-0.2 0.13,-0.21 0.12,-0.23 0.11,-0.23 0.09,-0.25 0.09,-0.26 0.08,-0.27 0.07,-0.28 0.06,-0.29 0.05,-0.3 0.04,-0.31 0.03,-0.32 0.02,-0.33 0,-0.35 c 0,-4.32 -2.51,-5.61 -4.53,-5.61 -1.39,0 -4.46,0.38 -5.93,2.44 1.64,0.07 2.02,1.22 2.02,1.95 0,1.12 -0.83,1.92 -1.91,1.92 -0.98,0 -1.96,-0.59 -1.96,-2.02 0,-3.28 3.63,-5.41 7.85,-5.41 4.84,0 8.19,3.25 8.19,6.73 0,2.72 -2.23,5.44 -6.07,6.24 3.67,1.33 4.99,3.94 4.99,6.07 0,2.76 -3.17,4.81 -7.04,4.81 -3.87,0 -6.83,-1.88 -6.83,-4.67 0,-1.18 0.76,-1.85 1.81,-1.85 1.08,0 1.77,0.8 1.77,1.78 0,1.01 -0.69,1.75 -1.77,1.81 1.22,1.54 3.62,1.92 4.92,1.92 1.56,0 3.76,-0.76 3.76,-3.8 0,-1.46 -0.49,-3.07 -1.39,-4.15 -1.16,-1.32 -2.13,-1.39 -3.87,-1.5 -0.88,-0.07 -0.95,-0.07 -1.12,-0.1 -0.07,0 -0.35,-0.07 -0.35,-0.46 0,-0.49 0.31,-0.49 0.91,-0.49 z"
           inkscape:connector-curvature="0"
           style="fill:#00cc00;stroke:#00cc00;stroke-width:0" /><path
           id="path3248"
           d="m 639.38,437.48 -0.01,0.17 0,0.17 0,0.16 -0.01,0.08 0,0.08 -0.01,0.08 -0.01,0.07 -0.01,0.08 -0.01,0.07 -0.01,0.07 -0.02,0.07 -0.02,0.07 -0.02,0.06 -0.02,0.07 -0.03,0.05 -0.03,0.06 -0.04,0.05 -0.04,0.05 -0.04,0.05 -0.04,0.04 -0.06,0.04 -0.05,0.03 -0.03,0.02 -0.03,0.01 -0.03,0.02 -0.03,0.01 -0.04,0.01 -0.03,0.01 -0.04,0.01 -0.04,0.01 -0.04,0.01 -0.04,0 -0.04,0.01 -0.04,0 -0.05,0 -0.04,0 c -1,0 -1,-1.04 -1,-1.79 v -29.49 h -13.85 c -0.75,0 -1.79,0 -1.79,-0.99 0,-1 1.04,-1 1.79,-1 h 29.74 c 0.85,0 1.75,0 1.75,1 0,0.99 -0.9,0.99 -1.75,0.99 h -13.89 z"
           inkscape:connector-curvature="0"
           style="fill:#00cc00;stroke:#00cc00;stroke-width:0" /><path
           id="path3250"
           d="m 685.65,437.88 0,0.05 -0.01,0.06 0,0.05 0,0.05 0,0.05 0,0.05 0,0.04 0,0.05 0,0.04 0,0.04 0,0.04 0,0.04 0,0.04 -0.01,0.04 0,0.03 0,0.04 -0.01,0.03 0,0.03 -0.01,0.06 -0.01,0.05 -0.02,0.05 -0.01,0.05 -0.02,0.04 -0.02,0.04 -0.03,0.04 -0.03,0.03 -0.03,0.02 -0.03,0.03 -0.04,0.02 -0.05,0.02 -0.02,0.01 -0.03,0.01 -0.02,0 -0.03,0.01 -0.03,0.01 -0.03,0 -0.03,0.01 -0.03,0 -0.03,0.01 -0.04,0 -0.04,0 -0.03,0 -0.04,0.01 -0.04,0 -0.04,0 -0.05,0 -0.04,0 -0.05,0 -0.05,0.01 -0.05,0 -0.05,0 -0.05,0 c -3.09,-3.19 -7.47,-3.19 -9.07,-3.19 v -1.55 c 1,0 3.94,0 6.53,1.3 v -25.81 c 0,-1.79 -0.15,-2.39 -4.63,-2.39 h -1.6 V 406 h 16.14 v 1.54 h -1.59 c -4.49,0 -4.63,0.55 -4.63,2.39 z"
           inkscape:connector-curvature="0"
           style="fill:#00cc00;stroke:#00cc00;stroke-width:0" /><path
           id="path3252"
           d="m 706.11,406.05 0,0.31 -0.01,0.29 -0.02,0.29 -0.02,0.28 -0.04,0.27 -0.03,0.26 -0.05,0.26 -0.05,0.24 -0.06,0.24 -0.07,0.23 -0.07,0.22 -0.07,0.21 -0.09,0.2 -0.09,0.19 -0.09,0.18 -0.1,0.18 -0.11,0.16 -0.11,0.15 -0.12,0.15 -0.12,0.13 -0.13,0.13 -0.13,0.11 -0.14,0.1 -0.15,0.1 -0.15,0.08 -0.15,0.07 -0.16,0.06 -0.16,0.05 -0.17,0.04 -0.17,0.03 -0.17,0.02 -0.18,0 c -1.65,0 -2.65,-1.24 -2.65,-2.64 0,-1.34 1,-2.64 2.65,-2.64 0.59,0 1.24,0.2 1.74,0.65 0.15,0.1 0.2,0.15 0.25,0.15 0.05,0 0.1,-0.05 0.1,-0.75 0,-3.69 -1.75,-6.67 -3.39,-8.32 -0.55,-0.55 -0.55,-0.65 -0.55,-0.8 0,-0.34 0.25,-0.54 0.5,-0.54 0.55,0 4.53,3.83 4.53,9.66 z"
           inkscape:connector-curvature="0"
           style="fill:#00cc00;stroke:#00cc00;stroke-width:0" /><path
           id="path3254"
           d="m 742.16,426.47 -4.18,9.92 c -0.16,0.4 -0.25,0.59 -0.25,0.65 0,0.29 0.84,1.24 2.93,1.44 0.5,0.05 1,0.1 1,0.95 0,0.59 -0.6,0.59 -0.75,0.59 h -11.85 c -0.3,0 -0.9,0 -0.9,-0.99 0,-0.55 0.5,-0.55 1.15,-0.55 2.99,0 3.28,-0.5 3.73,-1.6 l 5.88,-13.9 -10.51,-11.3 -0.65,-0.55 c -2.44,-2.64 -4.78,-3.43 -7.32,-3.59 -0.65,-0.04 -1.1,-0.04 -1.1,-0.99 0,-0.05 0,-0.55 0.65,-0.55 h 10.26 c 0.3,0 0.9,0 0.9,1 0,0.5 -0.5,0.54 -0.6,0.54 -0.45,0.05 -1.99,0.16 -1.99,1.55 0,0.8 0.75,1.59 1.35,2.24 l 5.07,5.38 4.49,4.88 5.03,-11.9 c 0.2,-0.55 0.25,-0.6 0.25,-0.7 0,-0.4 -0.95,-1.25 -2.89,-1.45 -0.55,-0.04 -1,-0.09 -1,-0.94 0,-0.6 0.55,-0.6 0.75,-0.6 h 11.81 c 0.35,0 0.94,0 0.94,0.95 0,0.59 -0.49,0.59 -0.89,0.59 -3.34,0.05 -3.44,0.2 -4.29,2.19 -1.94,4.64 -5.28,12.41 -6.42,15.4 3.39,3.48 8.62,9.41 10.21,10.81 1.44,1.19 3.33,2.39 6.33,2.54 0.64,0.05 1.09,0.05 1.09,0.99 0,0.05 0,0.55 -0.65,0.55 h -10.21 c -0.3,0 -0.94,0 -0.94,-0.99 0,-0.35 0.25,-0.5 0.59,-0.55 0.45,-0.05 2,-0.15 2,-1.55 0,-0.69 -0.55,-1.34 -0.95,-1.79 z"
           inkscape:connector-curvature="0"
           style="fill:#00cc00;stroke:#00cc00;stroke-width:0" /><path
           id="path3256"
           d="m 771.68,421.18 0,0.04 0,0.04 0,0.04 0,0.04 0,0.04 0,0.04 0,0.03 0,0.04 -0.01,0.03 0,0.03 0,0.04 0,0.03 -0.01,0.02 0,0.03 0,0.03 -0.01,0.03 0,0.02 0,0.02 -0.02,0.05 -0.01,0.04 -0.01,0.04 -0.02,0.03 -0.02,0.03 -0.02,0.03 -0.03,0.03 -0.02,0.02 -0.03,0.02 -0.04,0.02 -0.03,0.01 -0.04,0.01 -0.05,0.02 -0.05,0 -0.02,0.01 -0.03,0 -0.03,0.01 -0.02,0 -0.03,0 -0.03,0 -0.04,0 -0.03,0.01 -0.03,0 -0.04,0 -0.03,0 -0.04,0 -0.04,0 -0.04,0 -0.04,0 -0.04,0 -0.05,0 -0.04,0 c -2.24,-2.19 -5.41,-2.23 -6.84,-2.23 v -1.25 c 0.84,0 3.14,0 5.05,0.97 v -17.78 c 0,-1.15 0,-1.61 -3.48,-1.61 h -1.33 V 399 h 12.45 v 1.25 h -1.32 c -3.49,0 -3.49,0.46 -3.49,1.61 z"
           inkscape:connector-curvature="0"
           style="fill:#00cc00;stroke:#00cc00;stroke-width:0" /><path
           id="path3258"
           d="m 792.11,406.05 0,0.31 -0.01,0.29 -0.02,0.29 -0.02,0.28 -0.04,0.27 -0.03,0.26 -0.05,0.26 -0.05,0.24 -0.06,0.24 -0.07,0.23 -0.07,0.22 -0.07,0.21 -0.09,0.2 -0.09,0.19 -0.09,0.18 -0.1,0.18 -0.11,0.16 -0.11,0.15 -0.12,0.15 -0.12,0.13 -0.13,0.13 -0.13,0.11 -0.14,0.1 -0.15,0.1 -0.15,0.08 -0.15,0.07 -0.16,0.06 -0.16,0.05 -0.17,0.04 -0.17,0.03 -0.17,0.02 -0.18,0 c -1.65,0 -2.65,-1.24 -2.65,-2.64 0,-1.34 1,-2.64 2.65,-2.64 0.59,0 1.24,0.2 1.74,0.65 0.15,0.1 0.2,0.15 0.25,0.15 0.05,0 0.1,-0.05 0.1,-0.75 0,-3.69 -1.75,-6.67 -3.39,-8.32 -0.55,-0.55 -0.55,-0.65 -0.55,-0.8 0,-0.34 0.25,-0.54 0.5,-0.54 0.55,0 4.53,3.83 4.53,9.66 z"
           inkscape:connector-curvature="0"
           style="fill:#00cc00;stroke:#00cc00;stroke-width:0" /><path
           id="path3260"
           d="m 828.16,426.47 -4.18,9.92 c -0.16,0.4 -0.25,0.59 -0.25,0.65 0,0.29 0.84,1.24 2.93,1.44 0.5,0.05 1,0.1 1,0.95 0,0.59 -0.6,0.59 -0.75,0.59 h -11.85 c -0.3,0 -0.9,0 -0.9,-0.99 0,-0.55 0.5,-0.55 1.15,-0.55 2.99,0 3.28,-0.5 3.73,-1.6 l 5.88,-13.9 -10.51,-11.3 -0.65,-0.55 c -2.44,-2.64 -4.78,-3.43 -7.32,-3.59 -0.65,-0.04 -1.1,-0.04 -1.1,-0.99 0,-0.05 0,-0.55 0.65,-0.55 h 10.26 c 0.3,0 0.9,0 0.9,1 0,0.5 -0.5,0.54 -0.6,0.54 -0.45,0.05 -1.99,0.16 -1.99,1.55 0,0.8 0.75,1.59 1.35,2.24 l 5.07,5.38 4.49,4.88 5.03,-11.9 c 0.2,-0.55 0.25,-0.6 0.25,-0.7 0,-0.4 -0.95,-1.25 -2.89,-1.45 -0.55,-0.04 -1,-0.09 -1,-0.94 0,-0.6 0.55,-0.6 0.75,-0.6 h 11.81 c 0.35,0 0.94,0 0.94,0.95 0,0.59 -0.49,0.59 -0.89,0.59 -3.34,0.05 -3.44,0.2 -4.29,2.19 -1.94,4.64 -5.28,12.41 -6.42,15.4 3.39,3.48 8.62,9.41 10.21,10.81 1.44,1.19 3.33,2.39 6.33,2.54 0.64,0.05 1.09,0.05 1.09,0.99 0,0.05 0,0.55 -0.65,0.55 h -10.21 c -0.3,0 -0.94,0 -0.94,-0.99 0,-0.35 0.25,-0.5 0.59,-0.55 0.45,-0.05 2,-0.15 2,-1.55 0,-0.69 -0.55,-1.34 -0.95,-1.79 z"
           inkscape:connector-curvature="0"
           style="fill:#00cc00;stroke:#00cc00;stroke-width:0" /><path
           id="path3262"
           d="m 863.45,404.72 v 1.25 h -3.88 v 15.56 c 0,0.73 0,0.97 -0.76,0.97 -0.42,0 -0.56,0 -0.91,-0.49 l -11.54,-16.04 v -1.25 h 10.25 l 0.24,1.25 h -9.2 l 9.2,12.76 v -12.76 l -0.24,-1.25 v -2.86 c 0,-1.19 0,-1.61 -2.83,-1.61 h -0.94 V 399 h 10.5 v 1.25 h -0.94 c -2.83,0 -2.83,0.42 -2.83,1.61 v 2.86 z"
           inkscape:connector-curvature="0"
           style="fill:#00cc00;stroke:#00cc00;stroke-width:0" /><path
           id="path3264"
           d="m 878.11,406.05 0,0.31 -0.01,0.29 -0.02,0.29 -0.02,0.28 -0.04,0.27 -0.03,0.26 -0.05,0.26 -0.05,0.24 -0.06,0.24 -0.07,0.23 -0.07,0.22 -0.07,0.21 -0.09,0.2 -0.09,0.19 -0.09,0.18 -0.1,0.18 -0.11,0.16 -0.11,0.15 -0.12,0.15 -0.12,0.13 -0.13,0.13 -0.13,0.11 -0.14,0.1 -0.15,0.1 -0.15,0.08 -0.15,0.07 -0.16,0.06 -0.16,0.05 -0.17,0.04 -0.17,0.03 -0.17,0.02 -0.18,0 c -1.65,0 -2.65,-1.24 -2.65,-2.64 0,-1.34 1,-2.64 2.65,-2.64 0.59,0 1.24,0.2 1.74,0.65 0.15,0.1 0.2,0.15 0.25,0.15 0.05,0 0.1,-0.05 0.1,-0.75 0,-3.69 -1.75,-6.67 -3.39,-8.32 -0.55,-0.55 -0.55,-0.65 -0.55,-0.8 0,-0.34 0.25,-0.54 0.5,-0.54 0.55,0 4.53,3.83 4.53,9.66 z"
           inkscape:connector-curvature="0"
           style="fill:#00cc00;stroke:#00cc00;stroke-width:0" /><path
           id="path3266"
           d="m 914.16,426.47 -4.18,9.92 c -0.16,0.4 -0.25,0.59 -0.25,0.65 0,0.29 0.84,1.24 2.93,1.44 0.5,0.05 1,0.1 1,0.95 0,0.59 -0.6,0.59 -0.75,0.59 h -11.85 c -0.3,0 -0.9,0 -0.9,-0.99 0,-0.55 0.5,-0.55 1.15,-0.55 2.99,0 3.28,-0.5 3.73,-1.6 l 5.88,-13.9 -10.51,-11.3 -0.65,-0.55 c -2.44,-2.64 -4.78,-3.43 -7.32,-3.59 -0.65,-0.04 -1.1,-0.04 -1.1,-0.99 0,-0.05 0,-0.55 0.65,-0.55 h 10.26 c 0.3,0 0.9,0 0.9,1 0,0.5 -0.5,0.54 -0.6,0.54 -0.45,0.05 -1.99,0.16 -1.99,1.55 0,0.8 0.75,1.59 1.35,2.24 l 5.07,5.38 4.49,4.88 5.03,-11.9 c 0.2,-0.55 0.25,-0.6 0.25,-0.7 0,-0.4 -0.95,-1.25 -2.89,-1.45 -0.55,-0.04 -1,-0.09 -1,-0.94 0,-0.6 0.55,-0.6 0.75,-0.6 h 11.81 c 0.35,0 0.94,0 0.94,0.95 0,0.59 -0.49,0.59 -0.89,0.59 -3.34,0.05 -3.44,0.2 -4.29,2.19 -1.94,4.64 -5.28,12.41 -6.42,15.4 3.39,3.48 8.62,9.41 10.21,10.81 1.44,1.19 3.33,2.39 6.33,2.54 0.64,0.05 1.09,0.05 1.09,0.99 0,0.05 0,0.55 -0.65,0.55 h -10.21 c -0.3,0 -0.94,0 -0.94,-0.99 0,-0.35 0.25,-0.5 0.59,-0.55 0.45,-0.05 2,-0.15 2,-1.55 0,-0.69 -0.55,-1.34 -0.95,-1.79 z"
           inkscape:connector-curvature="0"
           style="fill:#00cc00;stroke:#00cc00;stroke-width:0" /><path
           id="path3268"
           d="m 936.41,418.46 0.16,-0.04 0.16,-0.04 0.16,-0.04 0.15,-0.03 0.15,-0.03 0.14,-0.03 0.14,-0.03 0.14,-0.02 0.13,-0.03 0.13,-0.02 0.12,-0.02 0.12,-0.02 0.12,-0.01 0.11,-0.02 0.11,-0.01 0.1,-0.01 0.11,-0.01 0.09,-0.01 0.1,-0.01 0.09,0 0.09,-0.01 0.08,0 0.08,-0.01 0.08,0 0.08,0 0.07,0 0.07,0 0.06,-0.01 0.07,0 0.06,0 0.05,0 0.05,0 c 4.61,0 7.33,3.14 7.33,3.66 0,0.39 -0.24,0.49 -0.42,0.49 -0.07,0 -0.14,0 -0.28,-0.1 -0.84,-0.32 -2.68,-1.01 -5.26,-1.01 -0.98,0 -2.83,0.07 -5.1,0.94 -0.34,0.17 -0.41,0.17 -0.45,0.17 -0.45,0 -0.45,-0.38 -0.45,-0.94 v -10.28 c 0,-0.6 0,-1.02 0.56,-1.02 0.31,0 0.34,0.07 0.7,0.49 1.49,1.92 3.62,2.2 4.84,2.2 2.09,0 3.03,-1.67 3.21,-1.96 0.63,-1.14 0.84,-2.47 0.84,-4.49 0,-1.05 0,-3.11 -1.05,-4.64 -0.87,-1.26 -2.37,-2.09 -4.08,-2.09 -2.27,0 -4.6,1.25 -5.47,3.56 1.32,-0.11 1.98,0.76 1.98,1.7 0,1.5 -1.28,1.78 -1.74,1.78 -0.07,0 -1.74,0 -1.74,-1.88 0,-3.14 2.85,-6.28 7.04,-6.28 4.46,0 8.37,3.31 8.37,7.71 0,3.94 -3,7.56 -7.33,7.56 -1.53,0 -3.34,-0.38 -4.87,-1.7 z"
           inkscape:connector-curvature="0"
           style="fill:#00cc00;stroke:#00cc00;stroke-width:0" /><path
           id="path3270"
           d="m 964.11,406.05 0,0.31 -0.01,0.29 -0.02,0.29 -0.02,0.28 -0.04,0.27 -0.03,0.26 -0.05,0.26 -0.05,0.24 -0.06,0.24 -0.07,0.23 -0.07,0.22 -0.07,0.21 -0.09,0.2 -0.09,0.19 -0.09,0.18 -0.1,0.18 -0.11,0.16 -0.11,0.15 -0.12,0.15 -0.12,0.13 -0.13,0.13 -0.13,0.11 -0.14,0.1 -0.15,0.1 -0.15,0.08 -0.15,0.07 -0.16,0.06 -0.16,0.05 -0.17,0.04 -0.17,0.03 -0.17,0.02 -0.18,0 c -1.65,0 -2.65,-1.24 -2.65,-2.64 0,-1.34 1,-2.64 2.65,-2.64 0.59,0 1.24,0.2 1.74,0.65 0.15,0.1 0.2,0.15 0.25,0.15 0.05,0 0.1,-0.05 0.1,-0.75 0,-3.69 -1.75,-6.67 -3.39,-8.32 -0.55,-0.55 -0.55,-0.65 -0.55,-0.8 0,-0.34 0.25,-0.54 0.5,-0.54 0.55,0 4.53,3.83 4.53,9.66 z"
           inkscape:connector-curvature="0"
           style="fill:#00cc00;stroke:#00cc00;stroke-width:0" /><path
           id="path3272"
           d="m 1000.2,426.47 -4.22,9.92 c -0.16,0.4 -0.25,0.59 -0.25,0.65 0,0.29 0.84,1.24 2.93,1.44 0.5,0.05 1,0.1 1,0.95 0,0.59 -0.6,0.59 -0.75,0.59 h -11.85 c -0.3,0 -0.9,0 -0.9,-0.99 0,-0.55 0.5,-0.55 1.15,-0.55 2.99,0 3.28,-0.5 3.73,-1.6 l 5.88,-13.9 -10.51,-11.3 -0.65,-0.55 c -2.44,-2.64 -4.78,-3.43 -7.32,-3.59 -0.65,-0.04 -1.1,-0.04 -1.1,-0.99 0,-0.05 0,-0.55 0.65,-0.55 h 10.26 c 0.3,0 0.9,0 0.9,1 0,0.5 -0.5,0.54 -0.6,0.54 -0.45,0.05 -1.99,0.16 -1.99,1.55 0,0.8 0.75,1.59 1.35,2.24 l 5.07,5.38 4.49,4.88 5.03,-11.9 c 0.2,-0.55 0.3,-0.6 0.3,-0.7 0,-0.4 -1,-1.25 -2.94,-1.45 -0.55,-0.04 -1,-0.09 -1,-0.94 0,-0.6 0.55,-0.6 0.75,-0.6 h 11.79 c 0.4,0 1,0 1,0.95 0,0.59 -0.5,0.59 -0.9,0.59 -3.4,0.05 -3.5,0.2 -4.3,2.19 -2,4.64 -5.3,12.41 -6.4,15.4 3.3,3.48 8.6,9.41 10.2,10.81 1.4,1.19 3.3,2.39 6.3,2.54 0.6,0.05 1.1,0.05 1.1,0.99 0,0.05 0,0.55 -0.7,0.55 h -10.2 c -0.3,0 -0.9,0 -0.9,-0.99 0,-0.35 0.2,-0.5 0.6,-0.55 0.4,-0.05 2,-0.15 2,-1.55 0,-0.69 -0.6,-1.34 -1,-1.79 z"
           inkscape:connector-curvature="0"
           style="fill:#00cc00;stroke:#00cc00;stroke-width:0" /><path
           id="path3274"
           d="m 1022.2,410.4 0,0.53 0,0.53 0.1,0.52 0,0.51 0,0.51 0.1,0.49 0,0.49 0.1,0.48 0.1,0.47 0.1,0.46 0.1,0.46 0.2,0.44 0.1,0.22 0.1,0.22 0.1,0.21 0.1,0.21 0.1,0.21 0.1,0.2 0.1,0.21 0.1,0.2 c 1.2,1.88 3.1,3.17 5.3,3.17 1,0 2.4,-0.28 3.1,-1.22 -0.8,-0.07 -1.6,-0.66 -1.6,-1.67 0,-0.87 0.6,-1.64 1.7,-1.64 1,0 1.6,0.69 1.6,1.71 0,2.02 -1.4,3.83 -4.9,3.83 -5,0 -10.1,-4.6 -10.1,-12.1 0,-9.03 4.2,-11.75 8.1,-11.75 4.2,0 7.9,3.25 7.9,7.81 0,4.43 -3.5,7.71 -7.6,7.71 l -0.1,-0.98 c 1.6,0 2.6,-0.63 3.5,-1.91 0.8,-1.33 0.9,-2.79 0.9,-4.82 0,-1.99 0,-3.45 -1,-4.81 -0.8,-1.22 -1.9,-1.88 -3.6,-1.88 h 0 c -1.8,0 -3.1,1.01 -3.9,2.54 -0.5,1.05 -0.8,2.79 -0.8,4.88 0,3.39 2.1,6 4.9,6 l 0.1,0.98 c -2.8,0 -4.3,-1.85 -5.1,-3.42 z"
           inkscape:connector-curvature="0"
           style="fill:#00cc00;stroke:#00cc00;stroke-width:0" /></g>    </g>
  </g>
</svg>
