<?xml version="1.0" encoding="UTF-8" standalone="no"?>
<!-- Created with Inkscape (http://www.inkscape.org/) -->

<svg
   xmlns:osb="http://www.openswatchbook.org/uri/2009/osb"
   xmlns:dc="http://purl.org/dc/elements/1.1/"
   xmlns:cc="http://creativecommons.org/ns#"
   xmlns:rdf="http://www.w3.org/1999/02/22-rdf-syntax-ns#"
   xmlns:svg="http://www.w3.org/2000/svg"
   xmlns="http://www.w3.org/2000/svg"
   xmlns:sodipodi="http://sodipodi.sourceforge.net/DTD/sodipodi-0.dtd"
   xmlns:inkscape="http://www.inkscape.org/namespaces/inkscape"
   width="297mm"
   height="210mm"
   id="svg10830"
   version="1.1"
   inkscape:version="0.48.0 r9654"
   sodipodi:docname="axes_general.svg">
  <sodipodi:namedview
     inkscape:document-units="mm"
     pagecolor="#ffffff"
     bordercolor="#666666"
     borderopacity="1.0"
     inkscape:pageopacity="0.0"
     inkscape:pageshadow="2"
     inkscape:zoom="1"
     inkscape:cx="121"
     inkscape:cy="340"
     inkscape:current-layer="layer1"
     id="namedview10834"
     showgrid="false"
     inkscape:window-width="2380"
     inkscape:window-height="1003"
     inkscape:window-x="0"
     inkscape:window-y="96"
     inkscape:window-maximized="0" />
  <defs
     id="defs10832">
    <linearGradient
       id="linearGradient13009"
       osb:paint="solid">
      <stop
         style="stop-color:#000000;stop-opacity:1;"
         offset="0"
         id="stop13011" />
    </linearGradient>
    <marker
       inkscape:stockid="Arrow1Lstart"
       orient="auto"
       refY="0"
       refX="0"
       id="Arrow1Lstart"
       style="overflow:visible">
      <path
         inkscape:connector-curvature="0"
         id="path3758"
         d="M 0,0 5,-5 -12.5,0 5,5 0,0 z"
         style="fill-rule:evenodd;stroke:#000000;stroke-width:1pt;marker-start:none"
         transform="matrix(0.8,0,0,0.8,10,0)" />
    </marker>
    <marker
       inkscape:stockid="Arrow2Lend"
       orient="auto"
       refY="0"
       refX="0"
       id="Arrow2Lend"
       style="overflow:visible">
      <path
         inkscape:connector-curvature="0"
         id="path3779"
         style="font-size:12px;fill-rule:evenodd;stroke-width:0.625;stroke-linejoin:round"
         d="M 8.7185878,4.0337352 -2.2072895,0.01601326 8.7185884,-4.0017078 c -1.7454984,2.3720609 -1.7354408,5.6174519 -6e-7,8.035443 z"
         transform="matrix(-1.1,0,0,-1.1,-1.1,0)" />
    </marker>
    <marker
       inkscape:stockid="Arrow2Lend"
       orient="auto"
       refY="0"
       refX="0"
       id="marker10778"
       style="overflow:visible">
      <path
         inkscape:connector-curvature="0"
         id="path10780"
         style="font-size:12px;fill-rule:evenodd;stroke-width:0.625;stroke-linejoin:round"
         d="M 8.7185878,4.0337352 -2.2072895,0.01601326 8.7185884,-4.0017078 c -1.7454984,2.3720609 -1.7354408,5.6174519 -6e-7,8.035443 z"
         transform="matrix(-1.1,0,0,-1.1,-1.1,0)" />
    </marker>
    <marker
       inkscape:stockid="Arrow1Lstart"
       orient="auto"
       refY="0"
       refX="0"
       id="marker10782"
       style="overflow:visible">
      <path
         inkscape:connector-curvature="0"
         id="path10784"
         d="M 0,0 5,-5 -12.5,0 5,5 0,0 z"
         style="fill-rule:evenodd;stroke:#000000;stroke-width:1pt;marker-start:none"
         transform="matrix(0.8,0,0,0.8,10,0)" />
    </marker>
    <marker
       inkscape:stockid="Arrow2Lend"
       orient="auto"
       refY="0"
       refX="0"
       id="marker10786"
       style="overflow:visible">
      <path
         inkscape:connector-curvature="0"
         id="path10788"
         style="font-size:12px;fill-rule:evenodd;stroke-width:0.625;stroke-linejoin:round"
         d="M 8.7185878,4.0337352 -2.2072895,0.01601326 8.7185884,-4.0017078 c -1.7454984,2.3720609 -1.7354408,5.6174519 -6e-7,8.035443 z"
         transform="matrix(-1.1,0,0,-1.1,-1.1,0)" />
    </marker>
    <marker
       inkscape:stockid="Arrow2Lstart"
       orient="auto"
       refY="0"
       refX="0"
       id="Arrow2Lstart"
       style="overflow:visible">
      <path
         inkscape:connector-curvature="0"
         id="path3776"
         style="font-size:12px;fill-rule:evenodd;stroke-width:0.625;stroke-linejoin:round"
         d="M 8.7185878,4.0337352 -2.2072895,0.01601326 8.7185884,-4.0017078 c -1.7454984,2.3720609 -1.7354408,5.6174519 -6e-7,8.035443 z"
         transform="matrix(1.1,0,0,1.1,1.1,0)" />
    </marker>
    <marker
       inkscape:stockid="Arrow2Lstart"
       orient="auto"
       refY="0"
       refX="0"
       id="marker10792"
       style="overflow:visible">
      <path
         inkscape:connector-curvature="0"
         id="path10794"
         style="font-size:12px;fill-rule:evenodd;stroke-width:0.625;stroke-linejoin:round"
         d="M 8.7185878,4.0337352 -2.2072895,0.01601326 8.7185884,-4.0017078 c -1.7454984,2.3720609 -1.7354408,5.6174519 -6e-7,8.035443 z"
         transform="matrix(1.1,0,0,1.1,1.1,0)" />
    </marker>
    <marker
       inkscape:stockid="Arrow1Lend"
       orient="auto"
       refY="0"
       refX="0"
       id="Arrow1Lend"
       style="overflow:visible">
      <path
         inkscape:connector-curvature="0"
         id="path3761"
         d="M 0,0 5,-5 -12.5,0 5,5 0,0 z"
         style="fill-rule:evenodd;stroke:#000000;stroke-width:1pt;marker-start:none"
         transform="matrix(-0.8,0,0,-0.8,-10,0)" />
    </marker>
  </defs>
  <metadata
     id="metadata10836">
    <rdf:RDF>
      <cc:Work
         rdf:about="">
        <dc:format>image/svg+xml</dc:format>
        <dc:type
           rdf:resource="http://purl.org/dc/dcmitype/StillImage" />
        <dc:title />
      </cc:Work>
    </rdf:RDF>
  </metadata>
  <g
     inkscape:label="Layer 1"
     inkscape:groupmode="layer"
     id="layer1">
    <path
       style="fill:none;stroke:#828282;stroke-width:4.25196838000000010;stroke-linecap:butt;stroke-linejoin:miter;stroke-miterlimit:4;stroke-opacity:1;stroke-dasharray:none;marker-start:url(#Arrow1Lstart);marker-end:url(#Arrow2Lend)"
       d="m 292.93474,32.433587 1,382.000003 -215,288"
       id="path4389"
       inkscape:connector-curvature="0" />
    <path
       style="fill:none;stroke:#828282;stroke-width:4.25196838000000010;stroke-linecap:butt;stroke-linejoin:miter;stroke-miterlimit:4;stroke-opacity:1;stroke-dasharray:none;marker-start:none;marker-end:url(#Arrow2Lend);fill-opacity:1"
       d="m 293.93474,414.43359 694,1"
       id="path5451"
       inkscape:connector-curvature="0"
       sodipodi:nodetypes="cc" />
    <path
       style="fill:none;stroke:#ca0000;stroke-width:0;stroke-linecap:butt;stroke-linejoin:miter;stroke-miterlimit:4;stroke-opacity:1;stroke-dasharray:none;marker-start:none;marker-mid:none"
       d="m 292.93474,412.43359 313,-216.00001 1,364.00001 64,-148"
       id="path7160"
       inkscape:connector-curvature="0" />
    <path
       style="fill:none;stroke:#d30000;stroke-width:1.77165353;stroke-linecap:butt;stroke-linejoin:miter;stroke-miterlimit:4;stroke-opacity:1;stroke-dasharray:3.54330707, 1.77165353;stroke-dashoffset:0;marker-start:url(#Arrow1Lstart)"
       d="m 625.93474,569.43359 -333,-156"
       id="path7162"
       inkscape:connector-curvature="0"
       sodipodi:nodetypes="cc" />
    <path
       style="fill:#d40000;fill-opacity:1;stroke:#d30000;stroke-width:2.12598419;stroke-linecap:butt;stroke-linejoin:miter;stroke-miterlimit:4;stroke-opacity:1;stroke-dasharray:4.25196838, 2.12598419;stroke-dashoffset:0;marker-end:url(#Arrow2Lend)"
       d="m 293.93474,412.43359 331,-253"
       id="path8666"
       inkscape:connector-curvature="0" />
    <path
       style="fill:none;stroke:#0000b0;stroke-width:1.77165353;stroke-linecap:butt;stroke-linejoin:miter;stroke-miterlimit:4;stroke-opacity:1;stroke-dasharray:5.3149606, 1.77165353;stroke-dashoffset:0;marker-start:url(#Arrow2Lstart);marker-end:none"
       d="m 624.93474,160.43359 2,410"
       id="path8668"
       inkscape:connector-curvature="0"
       sodipodi:nodetypes="cc" />
    <path
       style="fill:none;stroke:#0000b0;stroke-width:1.77165353;stroke-linecap:butt;stroke-linejoin:miter;stroke-miterlimit:4;stroke-opacity:1;stroke-dasharray:3.54330707, 1.77165353;stroke-dashoffset:0;marker-start:url(#Arrow2Lstart)"
       d="m 626.93474,568.43359 84,-154"
       id="path8670"
       inkscape:connector-curvature="0"
       sodipodi:nodetypes="cc" />
    <path
       style="fill:none;stroke:#b00000;stroke-width:1.77165353;stroke-linecap:butt;stroke-linejoin:miter;stroke-miterlimit:4;stroke-opacity:1;stroke-dasharray:3.54330709, 1.77165354;stroke-dashoffset:0;marker-end:url(#Arrow1Lend)"
       d="m 293.93474,413.43359 413,1"
       id="path10568"
       inkscape:connector-curvature="0"
       sodipodi:nodetypes="cc" />
    <g
       id="g4657"
       transform="translate(250,-185)">
      <g
         word-spacing="normal"
         letter-spacing="normal"
         font-size-adjust="none"
         font-stretch="normal"
         font-weight="normal"
         font-variant="normal"
         font-style="normal"
         stroke-miterlimit="10.433"
         xml:space="preserve"
         transform="matrix(1.0629921,0,0,-1.0629921,-186.02362,789.27165)"
         id="content"
         style="font-style:normal;font-variant:normal;font-weight:normal;font-stretch:normal;letter-spacing:normal;word-spacing:normal;text-anchor:start;fill:none;stroke:#000000;stroke-linecap:butt;stroke-linejoin:miter;stroke-miterlimit:10.43299961;stroke-opacity:1;stroke-dasharray:none;stroke-dashoffset:0"><path
           id="path4660"
           d="m 485.74,434.34 0.7,0.7 c 1.49,1.5 3.13,3.19 6.52,3.44 0.55,0.05 1,0.05 1,0.95 0,0.39 -0.25,0.59 -0.65,0.59 h -9.07 c -0.29,0 -0.94,0 -0.94,-0.95 0,-0.54 0.5,-0.59 0.74,-0.59 0.35,0 1.8,-0.1 1.8,-1.15 0,-0.85 -1.15,-2.14 -1.35,-2.39 l -11.55,-13.3 -5.48,14.8 c -0.3,0.69 -0.3,0.79 -0.3,0.84 0,1.2 2.44,1.2 2.94,1.2 0.69,0 1.19,0 1.19,0.99 0,0.55 -0.59,0.55 -0.74,0.55 h -11.86 c -0.3,0 -0.95,0 -0.95,-0.99 0,-0.55 0.5,-0.55 1.15,-0.55 2.99,0 3.19,-0.45 3.64,-1.69 l 6.12,-16.4 c 0.05,-0.14 0.2,-0.69 0.2,-0.84 0,-0.15 -1.99,-8.17 -2.24,-9.07 -0.65,-2.74 -0.7,-2.89 -4.68,-2.94 -0.95,0 -1.35,0 -1.35,-0.99 0,-0.55 0.6,-0.55 0.7,-0.55 h 12.65 c 0.35,0 0.95,0 0.95,1 0,0.54 -0.45,0.54 -1.4,0.54 -0.09,0 -1.04,0 -1.89,0.1 -1.04,0.1 -1.34,0.2 -1.34,0.8 0,0.35 0.45,2.09 0.7,3.14 l 1.74,7.02 c 0.25,0.95 0.29,1.1 0.7,1.55 z"
           inkscape:connector-curvature="0"
           style="fill:#b00000;stroke:#b00000;stroke-width:0" /></g>    </g>
    <g
       id="g5958"
       transform="translate(-65,-216)">
      <g
         word-spacing="normal"
         letter-spacing="normal"
         font-size-adjust="none"
         font-stretch="normal"
         font-weight="normal"
         font-variant="normal"
         font-style="normal"
         stroke-miterlimit="10.433"
         xml:space="preserve"
         transform="matrix(1.0629921,0,0,-1.0629921,-186.02362,789.27165)"
         id="g5960"
         style="font-style:normal;font-variant:normal;font-weight:normal;font-stretch:normal;letter-spacing:normal;word-spacing:normal;text-anchor:start;fill:none;stroke:#000000;stroke-linecap:butt;stroke-linejoin:miter;stroke-miterlimit:10.43299961;stroke-opacity:1;stroke-dasharray:none;stroke-dashoffset:0"><path
           id="path5962"
           d="m 476.38,437.48 -0.01,0.17 0,0.17 0,0.16 -0.01,0.08 0,0.08 -0.01,0.08 -0.01,0.07 -0.01,0.08 -0.01,0.07 -0.01,0.07 -0.02,0.07 -0.02,0.07 -0.02,0.06 -0.02,0.07 -0.03,0.05 -0.03,0.06 -0.04,0.05 -0.04,0.05 -0.04,0.05 -0.04,0.04 -0.06,0.04 -0.05,0.03 -0.03,0.02 -0.03,0.01 -0.03,0.02 -0.03,0.01 -0.04,0.01 -0.03,0.01 -0.04,0.01 -0.04,0.01 -0.04,0.01 -0.04,0 -0.04,0.01 -0.04,0 -0.05,0 -0.04,0 c -1,0 -1,-1.04 -1,-1.79 v -29.49 h -13.85 c -0.74,0 -1.79,0 -1.79,-0.99 0,-1 1.05,-1 1.79,-1 h 29.74 c 0.85,0 1.75,0 1.75,1 0,0.99 -0.9,0.99 -1.75,0.99 h -13.89 z"
           inkscape:connector-curvature="0"
           style="fill:#00cc00;stroke:#00cc00;stroke-width:0" /></g>    </g>
    <g
       transform="translate(-155,315)"
       id="g6901">
      <g
         style="font-style:normal;font-variant:normal;font-weight:normal;font-stretch:normal;letter-spacing:normal;word-spacing:normal;text-anchor:start;fill:none;stroke:#000000;stroke-linecap:butt;stroke-linejoin:miter;stroke-miterlimit:10.43299961;stroke-opacity:1;stroke-dasharray:none;stroke-dashoffset:0"
         id="g6903"
         transform="matrix(1.0629921,0,0,-1.0629921,-186.02362,789.27165)"
         xml:space="preserve"
         stroke-miterlimit="10.433"
         font-style="normal"
         font-variant="normal"
         font-weight="normal"
         font-stretch="normal"
         font-size-adjust="none"
         letter-spacing="normal"
         word-spacing="normal"><path
           style="fill:#00cc00;stroke:#00cc00;stroke-width:0"
           inkscape:connector-curvature="0"
           d="m 480.16,426.47 -4.18,9.92 c -0.16,0.4 -0.25,0.59 -0.25,0.65 0,0.29 0.84,1.24 2.93,1.44 0.5,0.05 1,0.1 1,0.95 0,0.59 -0.6,0.59 -0.75,0.59 h -11.85 c -0.3,0 -0.9,0 -0.9,-0.99 0,-0.55 0.5,-0.55 1.15,-0.55 2.99,0 3.28,-0.5 3.73,-1.6 l 5.88,-13.9 -10.51,-11.3 -0.65,-0.55 c -2.44,-2.64 -4.78,-3.43 -7.32,-3.59 -0.65,-0.04 -1.1,-0.04 -1.1,-0.99 0,-0.05 0,-0.55 0.65,-0.55 h 10.26 c 0.3,0 0.9,0 0.9,1 0,0.5 -0.5,0.54 -0.6,0.54 -0.44,0.05 -1.99,0.16 -1.99,1.55 0,0.8 0.75,1.59 1.35,2.24 l 5.07,5.38 4.49,4.88 5.03,-11.9 c 0.2,-0.55 0.25,-0.6 0.25,-0.7 0,-0.4 -0.95,-1.25 -2.89,-1.45 -0.55,-0.04 -1,-0.09 -1,-0.94 0,-0.6 0.55,-0.6 0.75,-0.6 h 11.81 c 0.35,0 0.94,0 0.94,0.95 0,0.59 -0.49,0.59 -0.89,0.59 -3.34,0.05 -3.44,0.2 -4.29,2.19 -1.94,4.64 -5.28,12.41 -6.42,15.4 3.38,3.48 8.62,9.41 10.21,10.81 1.44,1.19 3.33,2.39 6.33,2.54 0.64,0.05 1.09,0.05 1.09,0.99 0,0.05 0,0.55 -0.65,0.55 h -10.21 c -0.3,0 -0.94,0 -0.94,-0.99 0,-0.35 0.25,-0.5 0.59,-0.55 0.45,-0.05 2,-0.15 2,-1.55 0,-0.69 -0.55,-1.34 -0.95,-1.79 z"
           id="path6905" /><path
           style="fill:#00cc00;stroke:#00cc00;stroke-width:0"
           inkscape:connector-curvature="0"
           d="m 508.93,410.23 h 3.73 c 2.64,0 3.1,-0.42 3.1,-1.57 0,-0.52 0,-0.59 -0.24,-1.57 -0.07,-0.21 -0.11,-0.31 -0.11,-0.42 0,-0.35 0.25,-0.52 0.59,-0.52 0.46,0 0.49,0.17 0.67,0.8 l 1.88,7.39 c 0.04,0.11 0.14,0.63 0.14,0.7 0,0.35 -0.24,0.52 -0.59,0.52 -0.49,0 -0.53,-0.2 -0.7,-0.83 -0.7,-2.72 -1.71,-3.25 -4.67,-3.25 h -3.49 l 2.2,8.75 c 0.27,1.09 0.31,1.19 1.78,1.19 h 5.33 c 4.64,0 5.51,-1.12 5.51,-4.01 0,-1.15 -0.14,-1.88 -0.14,-2.16 0,-0.28 0.1,-0.59 0.59,-0.59 0.52,0 0.56,0.31 0.63,0.9 l 0.63,6.07 c 0.1,1.05 -0.14,1.05 -1.01,1.05 h -18.62 c -0.67,0 -1.12,0 -1.12,-0.77 0,-0.49 0.42,-0.49 1.12,-0.49 0.03,0 0.69,0 1.32,-0.07 0.73,-0.07 0.8,-0.14 0.8,-0.49 0,-0.24 -0.1,-0.59 -0.14,-0.76 l -4.57,-18.24 c -0.34,-1.36 -0.38,-1.61 -3.1,-1.61 -0.59,0 -1.04,0 -1.04,-0.73 0,-0.34 0.24,-0.52 0.55,-0.52 h 10.05 c 0.24,0 0.76,0 0.76,0.77 0,0.48 -0.41,0.48 -1.22,0.48 -0.07,0 -0.94,0 -1.81,0.07 -0.73,0.07 -1.08,0.11 -1.08,0.6 0,0.14 0,0.24 0.1,0.63 z"
           id="path6907" /><path
           style="fill:#00cc00;stroke:#00cc00;stroke-width:0"
           inkscape:connector-curvature="0"
           d="m 564.38,437.48 -0.01,0.17 0,0.17 0,0.16 -0.01,0.08 0,0.08 -0.01,0.08 -0.01,0.07 -0.01,0.08 -0.01,0.07 -0.01,0.07 -0.02,0.07 -0.02,0.07 -0.02,0.06 -0.02,0.07 -0.03,0.05 -0.03,0.06 -0.04,0.05 -0.04,0.05 -0.04,0.05 -0.04,0.04 -0.06,0.04 -0.05,0.03 -0.03,0.02 -0.03,0.01 -0.03,0.02 -0.03,0.01 -0.04,0.01 -0.03,0.01 -0.04,0.01 -0.04,0.01 -0.04,0.01 -0.04,0 -0.04,0.01 -0.04,0 -0.05,0 -0.04,0 c -1,0 -1,-1.04 -1,-1.79 v -29.49 h -13.85 c -0.75,0 -1.79,0 -1.79,-0.99 0,-1 1.04,-1 1.79,-1 h 29.74 c 0.85,0 1.75,0 1.75,1 0,0.99 -0.9,0.99 -1.75,0.99 h -13.89 z"
           id="path6909" /><path
           style="fill:#00cc00;stroke:#00cc00;stroke-width:0"
           inkscape:connector-curvature="0"
           d="m 620.16,426.47 -4.18,9.92 c -0.16,0.4 -0.25,0.59 -0.25,0.65 0,0.29 0.84,1.24 2.93,1.44 0.5,0.05 1,0.1 1,0.95 0,0.59 -0.6,0.59 -0.75,0.59 h -11.85 c -0.3,0 -0.9,0 -0.9,-0.99 0,-0.55 0.5,-0.55 1.15,-0.55 2.99,0 3.28,-0.5 3.73,-1.6 l 5.88,-13.9 -10.51,-11.3 -0.65,-0.55 c -2.44,-2.64 -4.78,-3.43 -7.32,-3.59 -0.65,-0.04 -1.1,-0.04 -1.1,-0.99 0,-0.05 0,-0.55 0.65,-0.55 h 10.26 c 0.3,0 0.9,0 0.9,1 0,0.5 -0.5,0.54 -0.6,0.54 -0.45,0.05 -1.99,0.16 -1.99,1.55 0,0.8 0.75,1.59 1.35,2.24 l 5.07,5.38 4.49,4.88 5.03,-11.9 c 0.2,-0.55 0.25,-0.6 0.25,-0.7 0,-0.4 -0.95,-1.25 -2.89,-1.45 -0.55,-0.04 -1,-0.09 -1,-0.94 0,-0.6 0.55,-0.6 0.75,-0.6 h 11.81 c 0.35,0 0.94,0 0.94,0.95 0,0.59 -0.49,0.59 -0.89,0.59 -3.34,0.05 -3.44,0.2 -4.29,2.19 -1.94,4.64 -5.28,12.41 -6.42,15.4 3.39,3.48 8.62,9.41 10.21,10.81 1.44,1.19 3.33,2.39 6.33,2.54 0.64,0.05 1.09,0.05 1.09,0.99 0,0.05 0,0.55 -0.65,0.55 h -10.21 c -0.3,0 -0.94,0 -0.94,-0.99 0,-0.35 0.25,-0.5 0.59,-0.55 0.45,-0.05 2,-0.15 2,-1.55 0,-0.69 -0.55,-1.34 -0.95,-1.79 z"
           id="path6911" /><path
           style="fill:#00cc00;stroke:#00cc00;stroke-width:0"
           inkscape:connector-curvature="0"
           d="m 658.71,410.86 0.39,0.09 0.38,0.11 0.38,0.11 0.38,0.12 0.37,0.13 0.37,0.14 0.36,0.15 0.35,0.15 0.34,0.16 0.34,0.17 0.33,0.18 0.32,0.18 0.31,0.19 0.3,0.2 0.29,0.2 0.27,0.21 0.27,0.22 0.25,0.22 0.24,0.23 0.22,0.23 0.21,0.24 0.2,0.25 0.17,0.25 0.17,0.25 0.14,0.26 0.13,0.27 0.11,0.27 0.09,0.27 0.07,0.28 0.06,0.28 0.03,0.29 0.01,0.29 c 0,3 -3.56,5.37 -8.61,5.37 h -10.71 c -0.66,0 -1.12,0 -1.12,-0.77 0,-0.49 0.42,-0.49 1.12,-0.49 0.03,0 0.7,0 1.33,-0.07 0.73,-0.07 0.8,-0.14 0.8,-0.49 0,-0.07 0,-0.24 -0.14,-0.77 l -4.64,-18.51 c -0.28,-1.18 -0.35,-1.47 -3.07,-1.47 -0.59,0 -1.04,0 -1.04,-0.73 0,-0.34 0.24,-0.52 0.55,-0.52 0.67,0 1.47,0.11 2.17,0.11 h 4.53 c 0.73,0 1.6,-0.11 2.34,-0.11 0.17,0 0.73,0 0.73,0.73 0,0.52 -0.35,0.52 -1.15,0.52 -0.56,0 -0.7,0 -1.33,0.07 -0.77,0.11 -0.77,0.18 -0.77,0.53 0,0.03 0,0.24 0.15,0.76 l 2.19,8.83 h 4.74 l 0.04,0.97 h -4.5 l 2.23,8.97 c 0.25,0.97 0.32,1.08 1.08,1.18 h 2.24 c 3.24,0 7.25,0 7.25,-3.59 0,-1.43 -0.67,-3.63 -2.31,-4.88 -1.43,-1.12 -3.59,-1.68 -5.99,-1.68 l -0.04,-0.97 c 3,0 4.29,-1.5 4.29,-3.14 0,-0.46 -0.31,-1.64 -0.49,-2.44 -0.41,-1.61 -0.55,-2.13 -0.55,-2.72 0,-2.76 2.54,-3.84 5.12,-3.84 3.21,0 4.6,3.42 4.6,4.05 0,0.1 -0.07,0.49 -0.59,0.49 -0.45,0 -0.52,-0.25 -0.63,-0.6 -0.48,-1.53 -1.78,-2.96 -3.24,-2.96 -0.91,0 -1.57,0.38 -1.57,2.27 0,0.87 0.21,2.68 0.35,3.62 0.14,0.94 0.14,1.29 0.14,1.64 0,0.42 0,1.53 -0.98,2.58 -0.66,0.73 -1.6,1.19 -2.37,1.47 z"
           id="path6913" /></g>    </g>
    <g
       id="g7065"
       transform="translate(554,35)">
      <g
         word-spacing="normal"
         letter-spacing="normal"
         font-size-adjust="none"
         font-stretch="normal"
         font-weight="normal"
         font-variant="normal"
         font-style="normal"
         stroke-miterlimit="10.433"
         xml:space="preserve"
         transform="matrix(1.0629921,0,0,-1.0629921,-186.02362,789.27165)"
         id="g7067"
         style="font-style:normal;font-variant:normal;font-weight:normal;font-stretch:normal;letter-spacing:normal;word-spacing:normal;text-anchor:start;fill:none;stroke:#000000;stroke-linecap:butt;stroke-linejoin:miter;stroke-miterlimit:10.43299961;stroke-opacity:1;stroke-dasharray:none;stroke-dashoffset:0"><path
           id="path7069"
           d="m 480.16,426.47 -4.18,9.92 c -0.16,0.4 -0.25,0.59 -0.25,0.65 0,0.29 0.84,1.24 2.93,1.44 0.5,0.05 1,0.1 1,0.95 0,0.59 -0.6,0.59 -0.75,0.59 h -11.85 c -0.3,0 -0.9,0 -0.9,-0.99 0,-0.55 0.5,-0.55 1.15,-0.55 2.99,0 3.28,-0.5 3.73,-1.6 l 5.88,-13.9 -10.51,-11.3 -0.65,-0.55 c -2.44,-2.64 -4.78,-3.43 -7.32,-3.59 -0.65,-0.04 -1.1,-0.04 -1.1,-0.99 0,-0.05 0,-0.55 0.65,-0.55 h 10.26 c 0.3,0 0.9,0 0.9,1 0,0.5 -0.5,0.54 -0.6,0.54 -0.44,0.05 -1.99,0.16 -1.99,1.55 0,0.8 0.75,1.59 1.35,2.24 l 5.07,5.38 4.49,4.88 5.03,-11.9 c 0.2,-0.55 0.25,-0.6 0.25,-0.7 0,-0.4 -0.95,-1.25 -2.89,-1.45 -0.55,-0.04 -1,-0.09 -1,-0.94 0,-0.6 0.55,-0.6 0.75,-0.6 h 11.81 c 0.35,0 0.94,0 0.94,0.95 0,0.59 -0.49,0.59 -0.89,0.59 -3.34,0.05 -3.44,0.2 -4.29,2.19 -1.94,4.64 -5.28,12.41 -6.42,15.4 3.38,3.48 8.62,9.41 10.21,10.81 1.44,1.19 3.33,2.39 6.33,2.54 0.64,0.05 1.09,0.05 1.09,0.99 0,0.05 0,0.55 -0.65,0.55 h -10.21 c -0.3,0 -0.94,0 -0.94,-0.99 0,-0.35 0.25,-0.5 0.59,-0.55 0.45,-0.05 2,-0.15 2,-1.55 0,-0.69 -0.55,-1.34 -0.95,-1.79 z"
           inkscape:connector-curvature="0"
           style="fill:#00cc00;stroke:#00cc00;stroke-width:0" /><path
           id="path7071"
           d="m 517.71,410.86 0.39,0.09 0.38,0.11 0.38,0.11 0.38,0.12 0.37,0.13 0.37,0.14 0.36,0.15 0.35,0.15 0.34,0.16 0.34,0.17 0.33,0.18 0.32,0.18 0.31,0.19 0.3,0.2 0.29,0.2 0.27,0.21 0.27,0.22 0.25,0.22 0.24,0.23 0.22,0.23 0.21,0.24 0.2,0.25 0.17,0.25 0.17,0.25 0.14,0.26 0.13,0.27 0.11,0.27 0.09,0.27 0.07,0.28 0.06,0.28 0.03,0.29 0.01,0.29 c 0,3 -3.56,5.37 -8.61,5.37 h -10.71 c -0.66,0 -1.12,0 -1.12,-0.77 0,-0.49 0.42,-0.49 1.12,-0.49 0.03,0 0.7,0 1.33,-0.07 0.73,-0.07 0.8,-0.14 0.8,-0.49 0,-0.07 0,-0.24 -0.14,-0.77 l -4.64,-18.51 c -0.28,-1.18 -0.35,-1.47 -3.07,-1.47 -0.59,0 -1.04,0 -1.04,-0.73 0,-0.34 0.24,-0.52 0.56,-0.52 0.66,0 1.46,0.11 2.16,0.11 h 4.53 c 0.73,0 1.6,-0.11 2.34,-0.11 0.17,0 0.73,0 0.73,0.73 0,0.52 -0.35,0.52 -1.16,0.52 -0.55,0 -0.69,0 -1.32,0.07 -0.77,0.11 -0.77,0.18 -0.77,0.53 0,0.03 0,0.24 0.15,0.76 l 2.19,8.83 h 4.74 l 0.04,0.97 h -4.5 l 2.23,8.97 c 0.24,0.97 0.31,1.08 1.08,1.18 h 2.24 c 3.24,0 7.25,0 7.25,-3.59 0,-1.43 -0.67,-3.63 -2.31,-4.88 -1.43,-1.12 -3.59,-1.68 -5.99,-1.68 l -0.04,-0.97 c 3,0 4.29,-1.5 4.29,-3.14 0,-0.46 -0.31,-1.64 -0.49,-2.44 -0.41,-1.61 -0.55,-2.13 -0.55,-2.72 0,-2.76 2.54,-3.84 5.12,-3.84 3.21,0 4.6,3.42 4.6,4.05 0,0.1 -0.07,0.49 -0.59,0.49 -0.45,0 -0.52,-0.25 -0.63,-0.6 -0.48,-1.53 -1.78,-2.96 -3.24,-2.96 -0.91,0 -1.57,0.38 -1.57,2.27 0,0.87 0.21,2.68 0.35,3.62 0.14,0.94 0.14,1.29 0.14,1.64 0,0.42 0,1.53 -0.98,2.58 -0.66,0.73 -1.6,1.19 -2.37,1.47 z"
           inkscape:connector-curvature="0"
           style="fill:#00cc00;stroke:#00cc00;stroke-width:0" /></g>    </g>
    <g
       transform="translate(178,43)"
       id="g7211">
      <g
         style="font-style:normal;font-variant:normal;font-weight:normal;font-stretch:normal;letter-spacing:normal;word-spacing:normal;text-anchor:start;fill:none;stroke:#000000;stroke-linecap:butt;stroke-linejoin:miter;stroke-miterlimit:10.43299961;stroke-opacity:1;stroke-dasharray:none;stroke-dashoffset:0"
         id="g7213"
         transform="matrix(1.0629921,0,0,-1.0629921,-186.02362,789.27165)"
         xml:space="preserve"
         stroke-miterlimit="10.433"
         font-style="normal"
         font-variant="normal"
         font-weight="normal"
         font-stretch="normal"
         font-size-adjust="none"
         letter-spacing="normal"
         word-spacing="normal"><polygon
           style="fill:#b00000;stroke:#b00000;stroke-width:0"
           points="489.35,447 489.95,448.09 475.85,456.06 461.75,448.09 462.3,447 475.8,453.12 "
           id="polygon7215" /><path
           style="fill:#b00000;stroke:#b00000;stroke-width:0"
           inkscape:connector-curvature="0"
           d="m 485.74,434.34 0.7,0.7 c 1.49,1.5 3.13,3.19 6.52,3.44 0.55,0.05 1,0.05 1,0.95 0,0.39 -0.25,0.59 -0.65,0.59 h -9.07 c -0.29,0 -0.94,0 -0.94,-0.95 0,-0.54 0.5,-0.59 0.74,-0.59 0.35,0 1.8,-0.1 1.8,-1.15 0,-0.85 -1.15,-2.14 -1.35,-2.39 l -11.55,-13.3 -5.48,14.8 c -0.3,0.69 -0.3,0.79 -0.3,0.84 0,1.2 2.44,1.2 2.94,1.2 0.69,0 1.19,0 1.19,0.99 0,0.55 -0.59,0.55 -0.74,0.55 h -11.86 c -0.3,0 -0.95,0 -0.95,-0.99 0,-0.55 0.5,-0.55 1.15,-0.55 2.99,0 3.19,-0.45 3.64,-1.69 l 6.12,-16.4 c 0.05,-0.14 0.2,-0.69 0.2,-0.84 0,-0.15 -1.99,-8.17 -2.24,-9.07 -0.65,-2.74 -0.7,-2.89 -4.68,-2.94 -0.95,0 -1.35,0 -1.35,-0.99 0,-0.55 0.6,-0.55 0.7,-0.55 h 12.65 c 0.35,0 0.95,0 0.95,1 0,0.54 -0.45,0.54 -1.4,0.54 -0.09,0 -1.04,0 -1.89,0.1 -1.04,0.1 -1.34,0.2 -1.34,0.8 0,0.35 0.45,2.09 0.7,3.14 l 1.74,7.02 c 0.25,0.95 0.29,1.1 0.7,1.55 z"
           id="path7217" /><path
           style="fill:#b00000;stroke:#b00000;stroke-width:0"
           inkscape:connector-curvature="0"
           d="m 504.71,410.86 0.39,0.09 0.38,0.11 0.38,0.11 0.38,0.12 0.37,0.13 0.37,0.14 0.36,0.15 0.35,0.15 0.34,0.16 0.34,0.17 0.33,0.18 0.32,0.18 0.31,0.19 0.3,0.2 0.29,0.2 0.27,0.21 0.27,0.22 0.25,0.22 0.24,0.23 0.22,0.23 0.21,0.24 0.2,0.25 0.17,0.25 0.17,0.25 0.14,0.26 0.13,0.27 0.11,0.27 0.09,0.27 0.07,0.28 0.06,0.28 0.03,0.29 0.01,0.29 c 0,3 -3.56,5.37 -8.61,5.37 h -10.71 c -0.66,0 -1.12,0 -1.12,-0.77 0,-0.49 0.42,-0.49 1.12,-0.49 0.03,0 0.7,0 1.33,-0.07 0.73,-0.07 0.8,-0.14 0.8,-0.49 0,-0.07 0,-0.24 -0.14,-0.77 l -4.64,-18.51 c -0.28,-1.18 -0.35,-1.47 -3.07,-1.47 -0.59,0 -1.04,0 -1.04,-0.73 0,-0.34 0.24,-0.52 0.56,-0.52 0.66,0 1.46,0.11 2.16,0.11 h 4.53 c 0.73,0 1.6,-0.11 2.34,-0.11 0.17,0 0.73,0 0.73,0.73 0,0.52 -0.35,0.52 -1.16,0.52 -0.55,0 -0.69,0 -1.32,0.07 -0.77,0.11 -0.77,0.18 -0.77,0.53 0,0.03 0,0.24 0.15,0.76 l 2.19,8.83 h 4.74 l 0.04,0.97 h -4.5 l 2.23,8.97 c 0.24,0.97 0.31,1.08 1.08,1.18 h 2.23 c 3.25,0 7.25,0 7.25,-3.59 0,-1.43 -0.66,-3.63 -2.3,-4.88 -1.43,-1.12 -3.59,-1.68 -5.99,-1.68 l -0.04,-0.97 c 3,0 4.29,-1.5 4.29,-3.14 0,-0.46 -0.31,-1.64 -0.49,-2.44 -0.41,-1.61 -0.55,-2.13 -0.55,-2.72 0,-2.76 2.54,-3.84 5.12,-3.84 3.21,0 4.6,3.42 4.6,4.05 0,0.1 -0.07,0.49 -0.59,0.49 -0.45,0 -0.52,-0.25 -0.63,-0.6 -0.49,-1.53 -1.77,-2.96 -3.24,-2.96 -0.91,0 -1.57,0.38 -1.57,2.27 0,0.87 0.21,2.68 0.35,3.62 0.14,0.94 0.14,1.29 0.14,1.64 0,0.42 0,1.53 -0.98,2.58 -0.66,0.73 -1.6,1.19 -2.37,1.47 z"
           id="path7219" /></g>    </g>
    <g
       id="g7363"
       transform="translate(221,248)">
      <g
         word-spacing="normal"
         letter-spacing="normal"
         font-size-adjust="none"
         font-stretch="normal"
         font-weight="normal"
         font-variant="normal"
         font-style="normal"
         stroke-miterlimit="10.433"
         xml:space="preserve"
         transform="matrix(1.0629921,0,0,-1.0629921,-186.02362,789.27165)"
         id="g7365"
         style="font-style:normal;font-variant:normal;font-weight:normal;font-stretch:normal;letter-spacing:normal;word-spacing:normal;text-anchor:start;fill:none;stroke:#000000;stroke-linecap:butt;stroke-linejoin:miter;stroke-miterlimit:10.43299961;stroke-opacity:1;stroke-dasharray:none;stroke-dashoffset:0"><polygon
           id="polygon7367"
           points="489.35,447 489.95,448.09 475.85,456.06 461.75,448.09 462.3,447 475.8,453.12 "
           style="fill:#b00000;stroke:#b00000;stroke-width:0" /><path
           id="path7369"
           d="m 485.74,434.34 0.7,0.7 c 1.49,1.5 3.13,3.19 6.52,3.44 0.55,0.05 1,0.05 1,0.95 0,0.39 -0.25,0.59 -0.65,0.59 h -9.07 c -0.29,0 -0.94,0 -0.94,-0.95 0,-0.54 0.5,-0.59 0.74,-0.59 0.35,0 1.8,-0.1 1.8,-1.15 0,-0.85 -1.15,-2.14 -1.35,-2.39 l -11.55,-13.3 -5.48,14.8 c -0.3,0.69 -0.3,0.79 -0.3,0.84 0,1.2 2.44,1.2 2.94,1.2 0.69,0 1.19,0 1.19,0.99 0,0.55 -0.59,0.55 -0.74,0.55 h -11.86 c -0.3,0 -0.95,0 -0.95,-0.99 0,-0.55 0.5,-0.55 1.15,-0.55 2.99,0 3.19,-0.45 3.64,-1.69 l 6.12,-16.4 c 0.05,-0.14 0.2,-0.69 0.2,-0.84 0,-0.15 -1.99,-8.17 -2.24,-9.07 -0.65,-2.74 -0.7,-2.89 -4.68,-2.94 -0.95,0 -1.35,0 -1.35,-0.99 0,-0.55 0.6,-0.55 0.7,-0.55 h 12.65 c 0.35,0 0.95,0 0.95,1 0,0.54 -0.45,0.54 -1.4,0.54 -0.09,0 -1.04,0 -1.89,0.1 -1.04,0.1 -1.34,0.2 -1.34,0.8 0,0.35 0.45,2.09 0.7,3.14 l 1.74,7.02 c 0.25,0.95 0.29,1.1 0.7,1.55 z"
           inkscape:connector-curvature="0"
           style="fill:#b00000;stroke:#b00000;stroke-width:0" /><path
           id="path7371"
           d="m 495.93,410.23 h 3.73 c 2.64,0 3.1,-0.42 3.1,-1.57 0,-0.52 0,-0.59 -0.24,-1.57 -0.07,-0.21 -0.11,-0.31 -0.11,-0.42 0,-0.35 0.25,-0.52 0.59,-0.52 0.46,0 0.49,0.17 0.67,0.8 l 1.88,7.39 c 0.04,0.11 0.14,0.63 0.14,0.7 0,0.35 -0.24,0.52 -0.59,0.52 -0.49,0 -0.53,-0.2 -0.7,-0.83 -0.7,-2.72 -1.71,-3.25 -4.67,-3.25 h -3.49 l 2.2,8.75 c 0.27,1.09 0.31,1.19 1.77,1.19 h 5.34 c 4.64,0 5.51,-1.12 5.51,-4.01 0,-1.15 -0.14,-1.88 -0.14,-2.16 0,-0.28 0.1,-0.59 0.59,-0.59 0.52,0 0.56,0.31 0.63,0.9 l 0.63,6.07 c 0.1,1.05 -0.14,1.05 -1.01,1.05 h -18.62 c -0.67,0 -1.12,0 -1.12,-0.77 0,-0.49 0.42,-0.49 1.12,-0.49 0.03,0 0.69,0 1.32,-0.07 0.73,-0.07 0.8,-0.14 0.8,-0.49 0,-0.24 -0.1,-0.59 -0.14,-0.76 l -4.57,-18.24 c -0.34,-1.36 -0.38,-1.61 -3.1,-1.61 -0.59,0 -1.04,0 -1.04,-0.73 0,-0.34 0.24,-0.52 0.55,-0.52 h 10.05 c 0.24,0 0.76,0 0.76,0.77 0,0.48 -0.41,0.48 -1.22,0.48 -0.07,0 -0.94,0 -1.81,0.07 -0.73,0.07 -1.08,0.11 -1.08,0.6 0,0.14 0,0.24 0.1,0.63 z"
           inkscape:connector-curvature="0"
           style="fill:#b00000;stroke:#b00000;stroke-width:0" /></g>    </g>
    <g
       transform="translate(399,150)"
       id="g7512">
      <g
         style="font-style:normal;font-variant:normal;font-weight:normal;font-stretch:normal;letter-spacing:normal;word-spacing:normal;text-anchor:start;fill:none;stroke:#000000;stroke-linecap:butt;stroke-linejoin:miter;stroke-miterlimit:10.43299961;stroke-opacity:1;stroke-dasharray:none;stroke-dashoffset:0"
         id="g7514"
         transform="matrix(1.0629921,0,0,-1.0629921,-186.02362,789.27165)"
         xml:space="preserve"
         stroke-miterlimit="10.433"
         font-style="normal"
         font-variant="normal"
         font-weight="normal"
         font-stretch="normal"
         font-size-adjust="none"
         letter-spacing="normal"
         word-spacing="normal"><polygon
           style="fill:#0000d4;stroke:#0000d4;stroke-width:0"
           points="489.35,447 489.95,448.09 475.85,456.06 461.75,448.09 462.3,447 475.8,453.12 "
           id="polygon7516" /><path
           style="fill:#0000d4;stroke:#0000d4;stroke-width:0"
           inkscape:connector-curvature="0"
           d="m 485.74,434.34 0.7,0.7 c 1.49,1.5 3.13,3.19 6.52,3.44 0.55,0.05 1,0.05 1,0.95 0,0.39 -0.25,0.59 -0.65,0.59 h -9.07 c -0.29,0 -0.94,0 -0.94,-0.95 0,-0.54 0.5,-0.59 0.74,-0.59 0.35,0 1.8,-0.1 1.8,-1.15 0,-0.85 -1.15,-2.14 -1.35,-2.39 l -11.55,-13.3 -5.48,14.8 c -0.3,0.69 -0.3,0.79 -0.3,0.84 0,1.2 2.44,1.2 2.94,1.2 0.69,0 1.19,0 1.19,0.99 0,0.55 -0.59,0.55 -0.74,0.55 h -11.86 c -0.3,0 -0.95,0 -0.95,-0.99 0,-0.55 0.5,-0.55 1.15,-0.55 2.99,0 3.19,-0.45 3.64,-1.69 l 6.12,-16.4 c 0.05,-0.14 0.2,-0.69 0.2,-0.84 0,-0.15 -1.99,-8.17 -2.24,-9.07 -0.65,-2.74 -0.7,-2.89 -4.68,-2.94 -0.95,0 -1.35,0 -1.35,-0.99 0,-0.55 0.6,-0.55 0.7,-0.55 h 12.65 c 0.35,0 0.95,0 0.95,1 0,0.54 -0.45,0.54 -1.4,0.54 -0.09,0 -1.04,0 -1.89,0.1 -1.04,0.1 -1.34,0.2 -1.34,0.8 0,0.35 0.45,2.09 0.7,3.14 l 1.74,7.02 c 0.25,0.95 0.29,1.1 0.7,1.55 z"
           id="path7518" /><path
           style="fill:#0000d4;stroke:#0000d4;stroke-width:0"
           inkscape:connector-curvature="0"
           d="m 495.93,410.23 h 3.73 c 2.64,0 3.1,-0.42 3.1,-1.57 0,-0.52 0,-0.59 -0.24,-1.57 -0.07,-0.21 -0.11,-0.31 -0.11,-0.42 0,-0.35 0.25,-0.52 0.59,-0.52 0.46,0 0.49,0.17 0.67,0.8 l 1.88,7.39 c 0.04,0.11 0.14,0.63 0.14,0.7 0,0.35 -0.24,0.52 -0.59,0.52 -0.49,0 -0.53,-0.2 -0.7,-0.83 -0.7,-2.72 -1.71,-3.25 -4.67,-3.25 h -3.49 l 2.2,8.75 c 0.27,1.09 0.31,1.19 1.77,1.19 h 5.34 c 4.64,0 5.51,-1.12 5.51,-4.01 0,-1.15 -0.14,-1.88 -0.14,-2.16 0,-0.28 0.1,-0.59 0.59,-0.59 0.52,0 0.56,0.31 0.63,0.9 l 0.63,6.07 c 0.1,1.05 -0.14,1.05 -1.01,1.05 h -18.62 c -0.67,0 -1.12,0 -1.12,-0.77 0,-0.49 0.42,-0.49 1.12,-0.49 0.03,0 0.69,0 1.32,-0.07 0.73,-0.07 0.8,-0.14 0.8,-0.49 0,-0.24 -0.1,-0.59 -0.14,-0.76 l -4.57,-18.24 c -0.34,-1.36 -0.38,-1.61 -3.1,-1.61 -0.59,0 -1.04,0 -1.04,-0.73 0,-0.34 0.24,-0.52 0.55,-0.52 h 10.05 c 0.24,0 0.76,0 0.76,0.77 0,0.48 -0.41,0.48 -1.22,0.48 -0.07,0 -0.94,0 -1.81,0.07 -0.73,0.07 -1.08,0.11 -1.08,0.6 0,0.14 0,0.24 0.1,0.63 z"
           id="path7520" /><path
           style="fill:#0000d4;stroke:#0000d4;stroke-width:0"
           inkscape:connector-curvature="0"
           d="m 561.83,417.46 0.16,0 0.16,0 0.15,0 0.08,0.01 0.08,0 0.07,0.01 0.08,0.01 0.07,0.01 0.07,0.01 0.07,0.01 0.07,0.02 0.06,0.02 0.07,0.02 0.06,0.03 0.05,0.02 0.06,0.04 0.05,0.03 0.05,0.04 0.05,0.04 0.04,0.05 0.04,0.05 0.01,0.02 0.02,0.03 0.02,0.03 0.01,0.03 0.02,0.03 0.01,0.04 0.01,0.03 0.01,0.03 0.01,0.04 0.01,0.04 0,0.04 0.01,0.04 0,0.04 0.01,0.04 0,0.05 0,0.04 c 0,1 -0.9,1 -1.74,1 h -26.95 c -0.85,0 -1.75,0 -1.75,-1 0,-0.99 0.9,-0.99 1.75,-0.99 z"
           id="path7522" /><polygon
           style="fill:#0000d4;stroke:#0000d4;stroke-width:0"
           points="612.35,447 612.95,448.09 598.85,456.06 584.75,448.09 585.3,447 598.8,453.12 "
           id="polygon7524" /><path
           style="fill:#0000d4;stroke:#0000d4;stroke-width:0"
           inkscape:connector-curvature="0"
           d="m 608.74,434.34 0.7,0.7 c 1.49,1.5 3.13,3.19 6.52,3.44 0.55,0.05 1,0.05 1,0.95 0,0.39 -0.25,0.59 -0.65,0.59 h -9.07 c -0.29,0 -0.94,0 -0.94,-0.95 0,-0.54 0.5,-0.59 0.74,-0.59 0.36,0 1.8,-0.1 1.8,-1.15 0,-0.85 -1.15,-2.14 -1.35,-2.39 l -11.55,-13.3 -5.48,14.8 c -0.3,0.69 -0.3,0.79 -0.3,0.84 0,1.2 2.44,1.2 2.94,1.2 0.69,0 1.19,0 1.19,0.99 0,0.55 -0.59,0.55 -0.74,0.55 h -11.86 c -0.3,0 -0.95,0 -0.95,-0.99 0,-0.55 0.5,-0.55 1.15,-0.55 2.99,0 3.19,-0.45 3.64,-1.69 l 6.12,-16.4 c 0.05,-0.14 0.2,-0.69 0.2,-0.84 0,-0.15 -1.99,-8.17 -2.24,-9.07 -0.65,-2.74 -0.7,-2.89 -4.68,-2.94 -0.95,0 -1.35,0 -1.35,-0.99 0,-0.55 0.6,-0.55 0.7,-0.55 h 12.65 c 0.35,0 0.95,0 0.95,1 0,0.54 -0.45,0.54 -1.4,0.54 -0.09,0 -1.04,0 -1.89,0.1 -1.04,0.1 -1.34,0.2 -1.34,0.8 0,0.35 0.45,2.09 0.7,3.14 l 1.74,7.02 c 0.25,0.95 0.29,1.1 0.7,1.55 z"
           id="path7526" /><path
           style="fill:#0000d4;stroke:#0000d4;stroke-width:0"
           inkscape:connector-curvature="0"
           d="m 627.71,410.86 0.39,0.09 0.38,0.11 0.38,0.11 0.38,0.12 0.37,0.13 0.37,0.14 0.36,0.15 0.35,0.15 0.34,0.16 0.34,0.17 0.33,0.18 0.32,0.18 0.31,0.19 0.3,0.2 0.29,0.2 0.27,0.21 0.27,0.22 0.25,0.22 0.24,0.23 0.22,0.23 0.21,0.24 0.2,0.25 0.17,0.25 0.17,0.25 0.14,0.26 0.13,0.27 0.11,0.27 0.09,0.27 0.07,0.28 0.06,0.28 0.03,0.29 0.01,0.29 c 0,3 -3.56,5.37 -8.61,5.37 h -10.71 c -0.66,0 -1.12,0 -1.12,-0.77 0,-0.49 0.42,-0.49 1.12,-0.49 0.03,0 0.7,0 1.33,-0.07 0.73,-0.07 0.8,-0.14 0.8,-0.49 0,-0.07 0,-0.24 -0.14,-0.77 l -4.64,-18.51 c -0.28,-1.18 -0.35,-1.47 -3.07,-1.47 -0.59,0 -1.04,0 -1.04,-0.73 0,-0.34 0.24,-0.52 0.55,-0.52 0.67,0 1.47,0.11 2.17,0.11 h 4.53 c 0.73,0 1.6,-0.11 2.34,-0.11 0.17,0 0.73,0 0.73,0.73 0,0.52 -0.35,0.52 -1.15,0.52 -0.56,0 -0.7,0 -1.33,0.07 -0.77,0.11 -0.77,0.18 -0.77,0.53 0,0.03 0,0.24 0.15,0.76 l 2.19,8.83 h 4.74 l 0.04,0.97 h -4.5 l 2.23,8.97 c 0.25,0.97 0.32,1.08 1.08,1.18 h 2.24 c 3.24,0 7.25,0 7.25,-3.59 0,-1.43 -0.67,-3.63 -2.31,-4.88 -1.43,-1.12 -3.59,-1.68 -5.99,-1.68 l -0.04,-0.97 c 3,0 4.29,-1.5 4.29,-3.14 0,-0.46 -0.31,-1.64 -0.49,-2.44 -0.41,-1.61 -0.55,-2.13 -0.55,-2.72 0,-2.76 2.54,-3.84 5.12,-3.84 3.21,0 4.6,3.42 4.6,4.05 0,0.1 -0.07,0.49 -0.59,0.49 -0.45,0 -0.52,-0.25 -0.63,-0.6 -0.48,-1.53 -1.78,-2.96 -3.24,-2.96 -0.91,0 -1.57,0.38 -1.57,2.27 0,0.87 0.21,2.68 0.35,3.62 0.14,0.94 0.14,1.29 0.14,1.64 0,0.42 0,1.53 -0.98,2.58 -0.66,0.73 -1.6,1.19 -2.37,1.47 z"
           id="path7528" /></g>    </g>
    <g
       id="g7674"
       transform="translate(340,-107)">
      <g
         word-spacing="normal"
         letter-spacing="normal"
         font-size-adjust="none"
         font-stretch="normal"
         font-weight="normal"
         font-variant="normal"
         font-style="normal"
         stroke-miterlimit="10.433"
         xml:space="preserve"
         transform="matrix(1.0629921,0,0,-1.0629921,-186.02362,789.27165)"
         id="g7676"
         style="font-style:normal;font-variant:normal;font-weight:normal;font-stretch:normal;letter-spacing:normal;word-spacing:normal;text-anchor:start;fill:none;stroke:#000000;stroke-linecap:butt;stroke-linejoin:miter;stroke-miterlimit:10.43299961;stroke-opacity:1;stroke-dasharray:none;stroke-dashoffset:0"><path
           id="path7678"
           d="m 485.74,434.34 0.7,0.7 c 1.49,1.5 3.13,3.19 6.52,3.44 0.55,0.05 1,0.05 1,0.95 0,0.39 -0.25,0.59 -0.65,0.59 h -9.07 c -0.29,0 -0.94,0 -0.94,-0.95 0,-0.54 0.5,-0.59 0.74,-0.59 0.35,0 1.8,-0.1 1.8,-1.15 0,-0.85 -1.15,-2.14 -1.35,-2.39 l -11.55,-13.3 -5.48,14.8 c -0.3,0.69 -0.3,0.79 -0.3,0.84 0,1.2 2.44,1.2 2.94,1.2 0.69,0 1.19,0 1.19,0.99 0,0.55 -0.59,0.55 -0.74,0.55 h -11.86 c -0.3,0 -0.95,0 -0.95,-0.99 0,-0.55 0.5,-0.55 1.15,-0.55 2.99,0 3.19,-0.45 3.64,-1.69 l 6.12,-16.4 c 0.05,-0.14 0.2,-0.69 0.2,-0.84 0,-0.15 -1.99,-8.17 -2.24,-9.07 -0.65,-2.74 -0.7,-2.89 -4.68,-2.94 -0.95,0 -1.35,0 -1.35,-0.99 0,-0.55 0.6,-0.55 0.7,-0.55 h 12.65 c 0.35,0 0.95,0 0.95,1 0,0.54 -0.45,0.54 -1.4,0.54 -0.09,0 -1.04,0 -1.89,0.1 -1.04,0.1 -1.34,0.2 -1.34,0.8 0,0.35 0.45,2.09 0.7,3.14 l 1.74,7.02 c 0.25,0.95 0.29,1.1 0.7,1.55 z"
           inkscape:connector-curvature="0"
           style="fill:#0000d4;stroke:#0000d4;stroke-width:0" /><path
           id="path7680"
           d="m 539.83,417.46 0.16,0 0.16,0 0.15,0 0.08,0.01 0.08,0 0.07,0.01 0.08,0.01 0.07,0.01 0.07,0.01 0.07,0.01 0.07,0.02 0.06,0.02 0.07,0.02 0.06,0.03 0.05,0.02 0.06,0.04 0.05,0.03 0.05,0.04 0.05,0.04 0.04,0.05 0.04,0.05 0.01,0.02 0.02,0.03 0.02,0.03 0.01,0.03 0.02,0.03 0.01,0.04 0.01,0.03 0.01,0.03 0.01,0.04 0.01,0.04 0,0.04 0.01,0.04 0,0.04 0.01,0.04 0,0.05 0,0.04 c 0,1 -0.9,1 -1.74,1 h -26.95 c -0.85,0 -1.75,0 -1.75,-1 0,-0.99 0.9,-0.99 1.75,-0.99 z"
           inkscape:connector-curvature="0"
           style="fill:#0000d4;stroke:#0000d4;stroke-width:0" /><polygon
           id="polygon7682"
           points="590.35,447 590.95,448.09 576.85,456.06 562.75,448.09 563.3,447 576.8,453.12 "
           style="fill:#0000d4;stroke:#0000d4;stroke-width:0" /><path
           id="path7684"
           d="m 585.74,434.34 0.7,0.7 c 1.49,1.5 3.13,3.19 6.52,3.44 0.55,0.05 1,0.05 1,0.95 0,0.39 -0.25,0.59 -0.65,0.59 h -9.07 c -0.29,0 -0.94,0 -0.94,-0.95 0,-0.54 0.5,-0.59 0.74,-0.59 0.36,0 1.8,-0.1 1.8,-1.15 0,-0.85 -1.15,-2.14 -1.35,-2.39 l -11.55,-13.3 -5.48,14.8 c -0.3,0.69 -0.3,0.79 -0.3,0.84 0,1.2 2.44,1.2 2.94,1.2 0.69,0 1.19,0 1.19,0.99 0,0.55 -0.59,0.55 -0.74,0.55 h -11.86 c -0.3,0 -0.95,0 -0.95,-0.99 0,-0.55 0.5,-0.55 1.15,-0.55 2.99,0 3.19,-0.45 3.64,-1.69 l 6.12,-16.4 c 0.05,-0.14 0.2,-0.69 0.2,-0.84 0,-0.15 -1.99,-8.17 -2.24,-9.07 -0.65,-2.74 -0.7,-2.89 -4.68,-2.94 -0.95,0 -1.35,0 -1.35,-0.99 0,-0.55 0.6,-0.55 0.7,-0.55 h 12.65 c 0.35,0 0.95,0 0.95,1 0,0.54 -0.45,0.54 -1.4,0.54 -0.09,0 -1.04,0 -1.89,0.1 -1.04,0.1 -1.34,0.2 -1.34,0.8 0,0.35 0.45,2.09 0.7,3.14 l 1.74,7.02 c 0.25,0.95 0.29,1.1 0.7,1.55 z"
           inkscape:connector-curvature="0"
           style="fill:#0000d4;stroke:#0000d4;stroke-width:0" /><path
           id="path7686"
           d="m 596.93,410.23 h 3.73 c 2.64,0 3.1,-0.42 3.1,-1.57 0,-0.52 0,-0.59 -0.24,-1.57 -0.07,-0.21 -0.11,-0.31 -0.11,-0.42 0,-0.35 0.25,-0.52 0.59,-0.52 0.46,0 0.49,0.17 0.67,0.8 l 1.88,7.39 c 0.04,0.11 0.14,0.63 0.14,0.7 0,0.35 -0.24,0.52 -0.59,0.52 -0.49,0 -0.53,-0.2 -0.7,-0.83 -0.7,-2.72 -1.71,-3.25 -4.67,-3.25 h -3.49 l 2.2,8.75 c 0.28,1.09 0.31,1.19 1.78,1.19 h 5.33 c 4.64,0 5.51,-1.12 5.51,-4.01 0,-1.15 -0.14,-1.88 -0.14,-2.16 0,-0.28 0.1,-0.59 0.59,-0.59 0.52,0 0.56,0.31 0.63,0.9 l 0.63,6.07 c 0.1,1.05 -0.14,1.05 -1.01,1.05 h -18.62 c -0.67,0 -1.12,0 -1.12,-0.77 0,-0.49 0.42,-0.49 1.12,-0.49 0.03,0 0.69,0 1.32,-0.07 0.73,-0.07 0.8,-0.14 0.8,-0.49 0,-0.24 -0.1,-0.59 -0.14,-0.76 l -4.57,-18.24 c -0.34,-1.36 -0.38,-1.61 -3.1,-1.61 -0.59,0 -1.04,0 -1.04,-0.73 0,-0.34 0.24,-0.52 0.56,-0.52 h 10.04 c 0.24,0 0.76,0 0.76,0.77 0,0.48 -0.42,0.48 -1.22,0.48 -0.07,0 -0.94,0 -1.81,0.07 -0.73,0.07 -1.08,0.11 -1.08,0.6 0,0.14 0,0.24 0.1,0.63 z"
           inkscape:connector-curvature="0"
           style="fill:#0000d4;stroke:#0000d4;stroke-width:0" /></g>    </g>
  </g>
</svg>
